<?xml version="1.0" encoding="utf-8"?>
<!-- Generator: Adobe Illustrator 22.1.0, SVG Export Plug-In . SVG Version: 6.00 Build 0)  -->
<svg version="1.1" id="Layer_1" xmlns="http://www.w3.org/2000/svg" xmlns:xlink="http://www.w3.org/1999/xlink" x="0px" y="0px"
	 viewBox="0 0 1024 1024" style="enable-background:new 0 0 1024 1024;" xml:space="preserve">
<style type="text/css">
	.st0{opacity:0.6;enable-background:new    ;}
	.st1{fill:#F6A51F;}
	.st2{fill:#A4C33E;}
</style>
<g class="st0">
	<path class="st1" d="M924,512c-0.1,85.6-26.8,169.4-76.5,239.2C799.7,818.4,731.2,870.8,653.7,899c-81.4,29.6-171.3,33-254.6,9.3
		c-80.4-22.9-152.5-70.6-205.6-135c-53.3-64.6-85.9-145.7-92.2-229.1C94.7,458.3,115,371.7,159.8,298
		c43-70.7,107.2-127.4,182.5-161.6c78.4-35.7,168.2-45.4,252.5-28.1c81.8,16.8,157.2,58.6,214.9,118.9
		C868,288,906.4,366.1,919.3,449.3C922.5,470.1,924,491,924,512c0,11.6,18,11.6,18,0c-0.1-89-27.9-177-79.7-249.4
		c-50.5-70.6-121.7-125-203.2-154.8c-84.4-30.8-178.5-34-264.9-9.5c-83.1,23.7-158.5,73-213.5,139.7
		c-56.5,68.5-90.8,153.3-97.5,241.9C76.5,568.8,98,659,144.3,735.1C189,808.6,256,868.3,334.5,903.7
		c82.3,37.2,175.2,47.5,263.8,29.6c85.1-17.2,164.2-61.1,224.2-123.8c60.6-63.2,101.3-144.8,114.4-231.4c3.3-21.9,5.1-43.9,5.1-66.1
		C942,500.4,924,500.4,924,512z"/>
</g>
<g class="st0">
	<path class="st1" d="M32.9,420.3c12-60.3,35.1-117.9,68.4-169.8c31.8-49.5,73.1-93.1,120.5-128c26.8-19.7,55.6-36.7,85.7-50.6
		c4.4-2,7.3-6.5,5.5-11.4c-1.5-4.3-7.1-7.6-11.4-5.5c-55.9,25.7-107,61.1-150.4,104.8c-43.5,43.9-78.9,96.1-103.6,152.8
		c-14.5,33.4-25.3,68.5-32.4,104.2C13,428.2,30.7,431.7,32.9,420.3L32.9,420.3z"/>
</g>
<g class="st0">
	<path class="st2" d="M879.9,189.7c47.8,55,83.2,120.1,102.5,190.4c20.2,73.6,22.9,151.5,7.7,226.2c-13,64.5-39.7,126.4-77.3,180.4
		c-35.5,51.1-80.7,95.1-132.8,129.3c-53.3,35.1-113.8,59.1-176.5,70.9c-8.1,1.5-16.2,2.8-24.3,3.9c-11.5,1.6-9.1,19.4,2.4,17.8
		c66.3-9.1,130.5-31.1,188.1-65.2c55.6-32.8,104.6-76.2,143.9-127.4c41-53.4,70.9-114.8,88-179.9c19.9-75.8,21.5-156.3,4.9-232.9
		c-15.9-74-48.4-144.1-95.1-203.9c-5.6-7.2-11.4-14.2-17.4-21.1C886.5,169.9,872.3,180.9,879.9,189.7L879.9,189.7z"/>
</g>
<g class="st0">
	<path class="st2" d="M512.3,854.7c-69.4-0.1-137.4-21.8-194-62c-54.2-38.5-96.6-93.9-119.5-156.4c-13.6-37.1-20.4-76.2-20.5-115.6
		c0-11.6-18-11.6-18,0c0.1,72.4,22.5,144,64.5,203.1c41.3,58.1,99.5,102.8,166.5,127.5c38.6,14.2,79.9,21.3,121,21.4
		C523.9,872.7,523.9,854.7,512.3,854.7L512.3,854.7z"/>
</g>
</svg>
