<svg xmlns="http://www.w3.org/2000/svg" viewBox="0 0 32.86 36"><defs><style>.cls-1,.cls-4{fill:#f6a51f;}.cls-1,.cls-3{opacity:0.6;}.cls-2{fill:#a4c33e;}</style></defs><title>Asset 2</title><g id="Layer_2" data-name="Layer 2"><g id="Layer_1-2" data-name="Layer 1"><path class="cls-1" d="M7.49,36A4.56,4.56,0,0,1,3,32.08L.05,11.63A4.56,4.56,0,0,1,3.92,6.47l5.55-.79L10,9.13,4.42,10a1.06,1.06,0,0,0-.9,1.19h0L6.45,31.58a1.07,1.07,0,0,0,1.2.89l15.42-2.21a.88.88,0,0,0,.74-1L23.62,28l3.48-.5.18,1.27a4.37,4.37,0,0,1-3.72,4.94L8.14,36A4.62,4.62,0,0,1,7.49,36Z"/><path class="cls-2" d="M28.3,29.51H12.84a4.59,4.59,0,0,1-4.57-4.57V4.57A4.58,4.58,0,0,1,12.84,0H28.3a4.57,4.57,0,0,1,4.56,4.57V24.94A4.57,4.57,0,0,1,28.3,29.51Zm-15.46-26a1.06,1.06,0,0,0-1.05,1.06V24.94A1.06,1.06,0,0,0,12.84,26H28.3a1.06,1.06,0,0,0,1.05-1.06V4.57A1.05,1.05,0,0,0,28.3,3.51Z"/><g class="cls-3"><path class="cls-4" d="M24.43,15.46a3.72,3.72,0,1,1-7.44,0Z"/><circle class="cls-4" cx="16" cy="11.94" r="1.41"/><circle class="cls-4" cx="25.14" cy="11.94" r="1.41"/></g></g></g></svg>