<svg xmlns="http://www.w3.org/2000/svg" viewBox="0 0 33.59 36.19"><defs><style>.cls-1{fill:#a4c33e;}.cls-2{opacity:0.6;}.cls-3{fill:#f6a51f;}</style></defs><title>Asset 1</title><g id="Layer_2" data-name="Layer 2"><g id="Layer_1-2" data-name="Layer 1"><path class="cls-1" d="M1.75,36.19A1.75,1.75,0,0,1,0,34.44V4.55A4.55,4.55,0,0,1,4.55,0H29a4.56,4.56,0,0,1,4.55,4.55v21A4.57,4.57,0,0,1,29,30.09H10.5a1.08,1.08,0,0,0-.65.22l-7,5.51A1.81,1.81,0,0,1,1.75,36.19ZM4.55,3.5a1,1,0,0,0-1,1V30.86l4.2-3.3a4.51,4.51,0,0,1,2.8-1H29a1,1,0,0,0,1.05-1.05v-21A1,1,0,0,0,29,3.5Z"/><g class="cls-2"><path class="cls-3" d="M21,13.29H12.6a1.75,1.75,0,1,1,0-3.49H21a1.75,1.75,0,1,1,0,3.49Z"/><path class="cls-3" d="M21,20.29H12.6a1.75,1.75,0,0,1,0-3.5H21a1.75,1.75,0,1,1,0,3.5Z"/></g></g></g></svg>