<svg xmlns="http://www.w3.org/2000/svg" viewBox="0 0 33 28.36"><defs><style>.cls-1{fill:#a4c33e;}.cls-2{fill:#f6a51f;opacity:0.6;}</style></defs><title>Asset 3</title><g id="Layer_2" data-name="Layer 2"><g id="Layer_1-2" data-name="Layer 1"><path class="cls-1" d="M16.5,28.36a1.61,1.61,0,0,1-1.14-.47L2.59,15.1A8.85,8.85,0,0,1,15.1,2.59h0L16.5,4l1.41-1.41a8.84,8.84,0,0,1,12.5,0h0a8.84,8.84,0,0,1,0,12.5h0L17.65,27.87A1.6,1.6,0,0,1,16.5,28.36ZM8.85,3.24a5.61,5.61,0,0,0-4,9.59L16.53,24.48,28.11,12.83A5.61,5.61,0,0,0,20.2,4.88h0L17.65,7.43a1.64,1.64,0,0,1-1.15.47h0a1.61,1.61,0,0,1-1.14-.47L12.81,4.88A5.61,5.61,0,0,0,8.85,3.24Z"/><path class="cls-2" d="M8.05,9.92l-.32,0a1.49,1.49,0,0,1-.58-.24,1.57,1.57,0,0,1-.25-.2A1.61,1.61,0,0,1,6.43,8.3a1.71,1.71,0,0,1,0-.32,1.49,1.49,0,0,1,.24-.58,2.43,2.43,0,0,1,.2-.25L7.11,7a1.6,1.6,0,0,1,.59-.24,1.72,1.72,0,0,1,.64,0A1.6,1.6,0,0,1,8.93,7l.24.2a2.43,2.43,0,0,1,.2.25,1.51,1.51,0,0,1,.15.28,1.71,1.71,0,0,1,.09.3,1.73,1.73,0,0,1,0,.32,1.61,1.61,0,0,1-.47,1.14,2.12,2.12,0,0,1-.24.2,1.6,1.6,0,0,1-.59.24Z"/></g></g></svg>