<svg xmlns="http://www.w3.org/2000/svg" viewBox="0 0 33.32 33.32"><defs><style>.cls-1{fill:#a4c33e;}</style></defs><title>Asset 10</title><g id="Layer_2" data-name="Layer 2"><g id="Layer_1-2" data-name="Layer 1"><path class="cls-1" d="M23.39,0H9.93A9.94,9.94,0,0,0,0,9.93V23.39a9.94,9.94,0,0,0,9.93,9.93H23.39a9.94,9.94,0,0,0,9.93-9.93V9.93A9.94,9.94,0,0,0,23.39,0ZM30,23.39A6.59,6.59,0,0,1,23.39,30H9.93a6.59,6.59,0,0,1-6.58-6.58V9.93A6.58,6.58,0,0,1,9.93,3.35H23.39A6.58,6.58,0,0,1,30,9.93V23.39Z"/><path class="cls-1" d="M16.66,8a8.62,8.62,0,1,0,8.62,8.62A8.63,8.63,0,0,0,16.66,8Zm0,13.88a5.27,5.27,0,1,1,5.26-5.26A5.26,5.26,0,0,1,16.66,21.92Z"/><circle class="cls-1" cx="25.29" cy="8.11" r="2.06"/></g></g></svg>