<svg xmlns="http://www.w3.org/2000/svg" viewBox="0 0 29.62 29.62"><defs><style>.cls-1{fill:#a4c33e;}</style></defs><title>Asset 11</title><g id="Layer_2" data-name="Layer 2"><g id="Layer_1-2" data-name="Layer 1"><path class="cls-1" d="M26.94,0H2.68A2.68,2.68,0,0,0,0,2.68V26.94a2.68,2.68,0,0,0,2.68,2.68H26.94a2.68,2.68,0,0,0,2.68-2.68V2.68A2.68,2.68,0,0,0,26.94,0ZM9.16,25.57a.77.77,0,0,1-.78.78H5.07a.78.78,0,0,1-.78-.78V11.66a.78.78,0,0,1,.78-.78H8.38a.77.77,0,0,1,.78.78Zm-2.43-16A3.16,3.16,0,1,1,9.88,6.42,3.15,3.15,0,0,1,6.73,9.57ZM26.51,25.64a.71.71,0,0,1-.72.71H22.23a.71.71,0,0,1-.72-.71V19.11c0-1,.29-4.27-2.54-4.27-2.2,0-2.64,2.26-2.73,3.27v7.53a.71.71,0,0,1-.72.71H12.08a.71.71,0,0,1-.72-.71v-14a.72.72,0,0,1,.72-.72h3.44a.72.72,0,0,1,.72.72v1.21c.81-1.22,2-2.16,4.6-2.16,5.7,0,5.67,5.32,5.67,8.25v6.74Z"/></g></g></svg>