<?xml version="1.0" encoding="utf-8"?>
<!-- Generator: Adobe Illustrator 22.1.0, SVG Export Plug-In . SVG Version: 6.00 Build 0)  -->
<svg version="1.1" id="Layer_1" xmlns="http://www.w3.org/2000/svg" xmlns:xlink="http://www.w3.org/1999/xlink" x="0px" y="0px"
	 viewBox="0 0 296 366" style="enable-background:new 0 0 296 366;" xml:space="preserve">
<style type="text/css">
	.st0{opacity:0.6;fill:#F6A51F;}
</style>
<path class="st0" d="M51.2,38c1.7-1.6,36.9-32.2,70.5-22.3c22.2,6.5,37.4,28.8,58.5,59.7c11.7,17.2,12.1,21.6,22.9,33.8
	c17.5,19.7,26,18.9,44,36.2c10.2,9.8,30.3,29.2,35.6,57.3c4.2,22.4-2.9,40.6-9.6,57.3c-8.4,20.8-25.4,62.8-69.9,83.2
	c-44,20.2-97.5,11.4-132.6-16.9C33.8,296.7,28.6,255.1,21.7,199C15.6,150.5,6.6,77.9,51.2,38z"/>
</svg>
