<svg id="Layer_1" data-name="Layer 1" xmlns="http://www.w3.org/2000/svg" viewBox="0 0 1920 540"><defs><style>.cls-1{fill:#7ed321;}.cls-1,.cls-2{opacity:0.3;}.cls-2{fill:#f5a623;}</style></defs><title>pattern-video</title><path class="cls-1" d="M935.14,242.68a6.91,6.91,0,0,1-6.92-6.92,17.81,17.81,0,1,0-35.61,0,6.93,6.93,0,0,1-13.85,0,31.66,31.66,0,0,1,63.31,0A6.92,6.92,0,0,1,935.14,242.68Z"/><path class="cls-1" d="M1598.61,322.76a6.93,6.93,0,0,1-6.93-6.93,17.81,17.81,0,1,0-35.61,0,6.93,6.93,0,0,1-13.85,0,31.66,31.66,0,0,1,63.31,0A6.92,6.92,0,0,1,1598.61,322.76Z"/><path class="cls-1" d="M1485,217a6.93,6.93,0,0,1-1.4-12.9,17.81,17.81,0,0,0-16-31.83,6.92,6.92,0,1,1-6.22-12.37,31.65,31.65,0,1,1,28.42,56.57A7,7,0,0,1,1485,217Z"/><path class="cls-2" d="M1326.3,344.1a6.92,6.92,0,0,1-5-8.42,45.56,45.56,0,0,1,55.35-32.83,6.93,6.93,0,1,1-3.43,13.42,31.68,31.68,0,0,0-38.5,22.83A6.93,6.93,0,0,1,1326.3,344.1Z"/><path class="cls-2" d="M665.92,274.08a6.92,6.92,0,0,1-6.93-6.92,45.56,45.56,0,0,1,45.5-45.51,6.93,6.93,0,1,1,0,13.85,31.69,31.69,0,0,0-31.65,31.66A6.92,6.92,0,0,1,665.92,274.08Z"/><path class="cls-2" d="M1069.09,184.59a6.93,6.93,0,0,1-2.25-13.48,31.69,31.69,0,0,0,19.62-40.24,6.92,6.92,0,1,1,13.09-4.51,45.56,45.56,0,0,1-28.2,57.85A6.87,6.87,0,0,1,1069.09,184.59Z"/><path class="cls-2" d="M863.92,353.2H826.19a6.93,6.93,0,0,1,0-13.85h37.74a6.93,6.93,0,0,1,0,13.85Z"/><path class="cls-2" d="M1342.39,199.51l-36.56-9.34a6.93,6.93,0,1,1,3.43-13.42l36.55,9.34a6.92,6.92,0,0,1-3.42,13.42Z"/><path class="cls-2" d="M1062,317.93H1024.3a6.93,6.93,0,0,1,0-13.85H1062a6.93,6.93,0,1,1,0,13.85Z"/><path class="cls-1" d="M1185.13,238.48a6.9,6.9,0,0,1-4.89-2l-26.69-26.68a6.93,6.93,0,1,1,9.8-9.79L1190,226.66a6.93,6.93,0,0,1-4.9,11.82Z"/><path class="cls-1" d="M381.57,231a6.92,6.92,0,0,1-8,5.71,17.81,17.81,0,0,0-5.76,35.15,6.92,6.92,0,1,1-2.25,13.66,31.65,31.65,0,1,1,10.26-62.47A6.92,6.92,0,0,1,381.57,231Z"/><path class="cls-1" d="M613.44,434.07a6.92,6.92,0,0,1-6.92-6.92A45.54,45.54,0,0,1,652,381.64a6.93,6.93,0,0,1,0,13.85,31.68,31.68,0,0,0-31.65,31.65A6.93,6.93,0,0,1,613.44,434.07Z"/><path class="cls-2" d="M545.06,180.6a6.93,6.93,0,0,1-8-11,31.7,31.7,0,0,0-.47-44.77,6.92,6.92,0,1,1,9.69-9.89,45.55,45.55,0,0,1,.67,64.35A7.2,7.2,0,0,1,545.06,180.6Z"/><path class="cls-2" d="M531.09,334.29l-33.74,16.89a6.92,6.92,0,1,1-6.2-12.38l33.74-16.9a6.93,6.93,0,0,1,6.2,12.39Z"/><path class="cls-2" d="M151.09,283.29l-33.74,16.89a6.92,6.92,0,1,1-6.2-12.38l33.74-16.9a6.93,6.93,0,0,1,6.2,12.39Z"/><path class="cls-1" d="M776.54,148.41a6.9,6.9,0,0,1-4.9-2L745,119.7a6.93,6.93,0,0,1,9.8-9.79l26.68,26.68a6.93,6.93,0,0,1-4.89,11.82Z"/><path class="cls-1" d="M1747.05,286.48a6.92,6.92,0,0,1,9.72,1.18,17.81,17.81,0,1,0,28-22,6.93,6.93,0,0,1,10.9-8.55,31.66,31.66,0,0,1-49.82,39.08A6.93,6.93,0,0,1,1747.05,286.48Z"/><path class="cls-2" d="M1513.92,422.08a6.92,6.92,0,0,1-6.93-6.92,45.56,45.56,0,0,1,45.5-45.51,6.93,6.93,0,1,1,0,13.85,31.69,31.69,0,0,0-31.65,31.66A6.92,6.92,0,0,1,1513.92,422.08Z"/><path class="cls-1" d="M271.54,343.41a6.9,6.9,0,0,1-4.9-2L240,314.7a6.93,6.93,0,0,1,9.8-9.79l26.68,26.68a6.93,6.93,0,0,1-4.89,11.82Z"/><path class="cls-2" d="M236.28,256.6a6.92,6.92,0,0,1-8-11,31.7,31.7,0,0,0-.47-44.77,6.92,6.92,0,0,1,9.69-9.89,45.55,45.55,0,0,1,.67,64.35A7.08,7.08,0,0,1,236.28,256.6Z"/><path class="cls-1" d="M1009.51,400.3a6.92,6.92,0,0,1,9.52,2.29A17.8,17.8,0,1,0,1049.4,384a6.93,6.93,0,0,1,11.82-7.23,31.66,31.66,0,1,1-54,33.05A6.92,6.92,0,0,1,1009.51,400.3Z"/><path class="cls-2" d="M1633.89,226.34a6.93,6.93,0,0,1-3.54-9.13,45.56,45.56,0,0,1,60-23.24,6.92,6.92,0,1,1-5.59,12.66A31.7,31.7,0,0,0,1643,222.8,6.92,6.92,0,0,1,1633.89,226.34Z"/><path class="cls-1" d="M1194,398a6.93,6.93,0,0,1,5.24-.83l36.68,8.84a6.92,6.92,0,1,1-3.24,13.46L1196,410.59a6.92,6.92,0,0,1-2-12.64Z"/></svg>