<?xml version="1.0" encoding="utf-8"?>
<!-- Generator: Adobe Illustrator 22.1.0, SVG Export Plug-In . SVG Version: 6.00 Build 0)  -->
<svg version="1.1" id="Layer_1" xmlns="http://www.w3.org/2000/svg" xmlns:xlink="http://www.w3.org/1999/xlink" x="0px" y="0px"
	 viewBox="0 0 1920 540" style="enable-background:new 0 0 1920 540;" xml:space="preserve">
<style type="text/css">
	.st0{opacity:0.3;fill:#7ED321;}
	.st1{opacity:0.3;fill:#F5A623;}
</style>
<g>
	<path class="st0" d="M935.1,242.7c-3.8,0-6.9-3.1-6.9-6.9c0-9.8-8-17.8-17.8-17.8c-9.8,0-17.8,8-17.8,17.8c0,3.8-3.1,6.9-6.9,6.9
		s-6.9-3.1-6.9-6.9c0-17.5,14.2-31.7,31.7-31.7c17.5,0,31.7,14.2,31.7,31.7C942.1,239.6,939,242.7,935.1,242.7z"/>
	<path class="st0" d="M1598.6,322.8c-3.8,0-6.9-3.1-6.9-6.9c0-9.8-8-17.8-17.8-17.8s-17.8,8-17.8,17.8c0,3.8-3.1,6.9-6.9,6.9
		c-3.8,0-6.9-3.1-6.9-6.9c0-17.5,14.2-31.7,31.7-31.7c17.5,0,31.7,14.2,31.7,31.7C1605.5,319.7,1602.4,322.8,1598.6,322.8z"/>
	<path class="st0" d="M1485,216.9c-1.9-0.5-3.5-1.7-4.5-3.6c-1.7-3.4-0.3-7.6,3.1-9.3c4.3-2.1,7.4-5.8,8.9-10.3
		c1.5-4.5,1.1-9.3-1-13.6c-4.4-8.8-15.1-12.3-23.9-7.9c-3.4,1.7-7.6,0.3-9.3-3.1c-1.7-3.4-0.3-7.6,3.1-9.3
		c15.6-7.8,34.7-1.5,42.5,14.1c3.8,7.6,4.4,16.1,1.8,24.2c-2.7,8-8.3,14.5-15.8,18.3C1488.3,217.2,1486.6,217.3,1485,216.9z"/>
	<path class="st1" d="M1326.3,344.1c-3.7-0.9-5.9-4.7-5-8.4c6.2-24.3,31-39,55.4-32.8c3.7,0.9,5.9,4.7,5,8.4s-4.7,5.9-8.4,5
		c-16.9-4.3-34.2,5.9-38.5,22.8C1333.8,342.8,1330,345,1326.3,344.1z"/>
	<path class="st1" d="M665.9,274.1c-3.8,0-6.9-3.1-6.9-6.9c0-25.1,20.4-45.5,45.5-45.5c3.8,0,6.9,3.1,6.9,6.9s-3.1,6.9-6.9,6.9
		c-17.5,0-31.7,14.2-31.7,31.7C672.8,271,669.7,274.1,665.9,274.1z"/>
	<path class="st1" d="M1069.1,184.6c-2.9,0-5.6-1.8-6.5-4.7c-1.2-3.6,0.7-7.6,4.3-8.8c16.5-5.7,25.3-23.7,19.6-40.2
		c-1.2-3.6,0.7-7.6,4.3-8.8c3.6-1.2,7.6,0.7,8.8,4.3c8.2,23.7-4.5,49.7-28.2,57.8C1070.6,184.5,1069.8,184.6,1069.1,184.6z"/>
	<path class="st1" d="M863.9,353.2l-37.7,0c-3.8,0-6.9-3.1-6.9-6.9c0-3.8,3.1-6.9,6.9-6.9l37.7,0c3.8,0,6.9,3.1,6.9,6.9
		S867.7,353.2,863.9,353.2z"/>
	<path class="st1" d="M1342.4,199.5l-36.6-9.3c-3.7-0.9-5.9-4.7-5-8.4c0.9-3.7,4.7-5.9,8.4-5l36.6,9.3c3.7,0.9,5.9,4.7,5,8.4
		C1349.9,198.2,1346.1,200.5,1342.4,199.5z"/>
	<path class="st1" d="M1062,317.9l-37.7,0c-3.8,0-6.9-3.1-6.9-6.9s3.1-6.9,6.9-6.9l37.7,0c3.8,0,6.9,3.1,6.9,6.9
		C1069,314.8,1065.9,317.9,1062,317.9z"/>
	<path class="st0" d="M1185.1,238.5c-1.8,0-3.5-0.7-4.9-2l-26.7-26.7c-2.7-2.7-2.7-7.1,0-9.8c2.7-2.7,7.1-2.7,9.8,0l26.7,26.7
		c2.7,2.7,2.7,7.1,0,9.8C1188.7,237.8,1186.9,238.5,1185.1,238.5z"/>
	<path class="st0" d="M381.6,231c-0.6,3.8-4.2,6.3-8,5.7c-9.7-1.6-18.9,5-20.5,14.7s5,18.9,14.7,20.5c3.8,0.6,6.3,4.2,5.7,8
		c-0.6,3.8-4.2,6.3-8,5.7c-17.2-2.8-28.9-19.1-26.1-36.4s19.1-28.9,36.4-26.1C379.6,223.7,382.2,227.3,381.6,231z"/>
	<path class="st0" d="M613.4,434.1c-3.8,0-6.9-3.1-6.9-6.9c0-25.1,20.4-45.5,45.5-45.5c3.8,0,6.9,3.1,6.9,6.9s-3.1,6.9-6.9,6.9
		c-17.5,0-31.7,14.2-31.7,31.7C620.4,431,617.3,434.1,613.4,434.1z"/>
	<path class="st1" d="M545.1,180.6c-2.6,1.3-5.8,0.9-7.9-1.2c-2.7-2.7-2.8-7.1-0.1-9.8c12.2-12.5,12-32.6-0.5-44.8
		c-2.7-2.7-2.8-7.1-0.1-9.8c2.7-2.7,7.1-2.8,9.8-0.1c17.9,17.6,18.2,46.4,0.7,64.3C546.3,179.8,545.7,180.3,545.1,180.6z"/>
	<path class="st1" d="M531.1,334.3l-33.7,16.9c-3.4,1.7-7.6,0.3-9.3-3.1c-1.7-3.4-0.3-7.6,3.1-9.3l33.7-16.9
		c3.4-1.7,7.6-0.3,9.3,3.1C535.9,328.4,534.5,332.6,531.1,334.3z"/>
	<path class="st1" d="M151.1,283.3l-33.7,16.9c-3.4,1.7-7.6,0.3-9.3-3.1c-1.7-3.4-0.3-7.6,3.1-9.3l33.7-16.9
		c3.4-1.7,7.6-0.3,9.3,3.1C155.9,277.4,154.5,281.6,151.1,283.3z"/>
	<path class="st0" d="M776.5,148.4c-1.8,0-3.5-0.7-4.9-2L745,119.7c-2.7-2.7-2.7-7.1,0-9.8c2.7-2.7,7.1-2.7,9.8,0l26.7,26.7
		c2.7,2.7,2.7,7.1,0,9.8C780.1,147.7,778.3,148.4,776.5,148.4z"/>
	<path class="st0" d="M1747,286.5c3-2.4,7.4-1.8,9.7,1.2c6.1,7.7,17.3,9.1,25,3c7.7-6.1,9.1-17.3,3-25c-2.4-3-1.8-7.4,1.2-9.7
		c3-2.4,7.4-1.8,9.7,1.2c10.8,13.7,8.4,33.7-5.4,44.4c-13.7,10.8-33.7,8.4-44.4-5.4C1743.5,293.2,1744,288.8,1747,286.5z"/>
	<path class="st1" d="M1513.9,422.1c-3.8,0-6.9-3.1-6.9-6.9c0-25.1,20.4-45.5,45.5-45.5c3.8,0,6.9,3.1,6.9,6.9
		c0,3.8-3.1,6.9-6.9,6.9c-17.5,0-31.7,14.2-31.7,31.7C1520.8,419,1517.7,422.1,1513.9,422.1z"/>
	<path class="st0" d="M271.5,343.4c-1.8,0-3.5-0.7-4.9-2L240,314.7c-2.7-2.7-2.7-7.1,0-9.8c2.7-2.7,7.1-2.7,9.8,0l26.7,26.7
		c2.7,2.7,2.7,7.1,0,9.8C275.1,342.7,273.3,343.4,271.5,343.4z"/>
	<path class="st1" d="M236.3,256.6c-2.6,1.3-5.8,0.9-7.9-1.2c-2.7-2.7-2.8-7.1-0.1-9.8c12.2-12.5,12-32.6-0.5-44.8
		c-2.7-2.7-2.8-7.1-0.1-9.8c2.7-2.7,7.1-2.8,9.8-0.1c17.9,17.6,18.2,46.4,0.7,64.3C237.6,255.8,237,256.3,236.3,256.6z"/>
	<path class="st0" d="M1009.5,400.3c3.3-2,7.5-1,9.5,2.3c5.1,8.4,16.1,11,24.5,5.9c8.4-5.1,11-16.1,5.9-24.5c-2-3.3-1-7.5,2.3-9.5
		c3.3-2,7.5-1,9.5,2.3c9.1,14.9,4.4,34.4-10.5,43.5c-14.9,9.1-34.4,4.4-43.5-10.5C1005.2,406.6,1006.2,402.3,1009.5,400.3z"/>
	<path class="st1" d="M1633.9,226.3c-3.5-1.5-5.1-5.6-3.5-9.1c10.1-23,37.1-33.4,60-23.2c3.5,1.5,5.1,5.6,3.5,9.1s-5.6,5.1-9.1,3.5
		c-16-7.1-34.7,0.2-41.7,16.2C1641.5,226.3,1637.4,227.9,1633.9,226.3z"/>
	<path class="st0" d="M1194,397.9c1.5-0.9,3.4-1.3,5.2-0.8l36.7,8.8c3.7,0.9,6,4.6,5.1,8.4c-0.9,3.7-4.6,6-8.4,5.1l-36.7-8.8
		c-3.7-0.9-6-4.6-5.1-8.4C1191.3,400.4,1192.5,398.9,1194,397.9z"/>
</g>
</svg>
