<?xml version="1.0" encoding="utf-8"?>
<!-- Generator: Adobe Illustrator 22.1.0, SVG Export Plug-In . SVG Version: 6.00 Build 0)  -->
<svg version="1.1" id="Layer_1" xmlns="http://www.w3.org/2000/svg" xmlns:xlink="http://www.w3.org/1999/xlink" x="0px" y="0px"
	 viewBox="0 0 1920 1080" style="enable-background:new 0 0 1920 1080;" xml:space="preserve">
<style type="text/css">
	.st0{opacity:0.3;fill:#7ED321;}
	.st1{opacity:0.3;fill:#F5A623;}
</style>
<g>
	<path class="st0" d="M1490.1,135.7c-3.8,0-6.9-3.1-6.9-6.9c0-9.8-8-17.8-17.8-17.8c-9.8,0-17.8,8-17.8,17.8c0,3.8-3.1,6.9-6.9,6.9
		s-6.9-3.1-6.9-6.9c0-17.5,14.2-31.7,31.7-31.7c17.5,0,31.7,14.2,31.7,31.7C1497.1,132.6,1494,135.7,1490.1,135.7z"/>
	<path class="st0" d="M1911.6,491.8c-3.8,0-6.9-3.1-6.9-6.9c0-9.8-8-17.8-17.8-17.8s-17.8,8-17.8,17.8c0,3.8-3.1,6.9-6.9,6.9
		c-3.8,0-6.9-3.1-6.9-6.9c0-17.5,14.2-31.7,31.7-31.7c17.5,0,31.7,14.2,31.7,31.7C1918.5,488.7,1915.4,491.8,1911.6,491.8z"/>
	<path class="st0" d="M1838.3,175.8c-1.9,0-3.9-0.8-5.2-2.4c-2.5-2.9-2.2-7.3,0.7-9.8c3.6-3.1,5.7-7.5,6.1-12.2
		c0.3-4.7-1.2-9.3-4.3-12.9c-6.4-7.4-17.7-8.2-25.1-1.8c-2.9,2.5-7.3,2.2-9.8-0.7c-2.5-2.9-2.2-7.3,0.7-9.8
		c13.2-11.5,33.2-10.1,44.7,3.1c5.5,6.4,8.3,14.5,7.7,23c-0.6,8.4-4.4,16.1-10.8,21.7C1841.6,175.2,1839.9,175.8,1838.3,175.8z"/>
	<path class="st1" d="M1741.4,373.1c-3.8,0-6.9-3.1-6.9-6.9c0-25.1,20.4-45.5,45.5-45.5c3.8,0,6.9,3.1,6.9,6.9s-3.1,6.9-6.9,6.9
		c-17.5,0-31.7,14.2-31.7,31.7C1748.4,370,1745.3,373.1,1741.4,373.1z"/>
	<path class="st1" d="M1143.9,195.1c-3.8,0-6.9-3.1-6.9-6.9c0-25.1,20.4-45.5,45.5-45.5c3.8,0,6.9,3.1,6.9,6.9
		c0,3.8-3.1,6.9-6.9,6.9c-17.5,0-31.7,14.2-31.7,31.7C1150.8,192,1147.7,195.1,1143.9,195.1z"/>
	<path class="st1" d="M1624.1,77.6c-2.9,0-5.6-1.8-6.5-4.7c-1.2-3.6,0.7-7.6,4.3-8.8c16.5-5.7,25.3-23.7,19.6-40.2
		c-1.2-3.6,0.7-7.6,4.3-8.8c3.6-1.2,7.6,0.7,8.8,4.3c8.2,23.7-4.5,49.7-28.2,57.8C1625.6,77.5,1624.8,77.6,1624.1,77.6z"/>
	<path class="st1" d="M1341.9,274.2l-37.7,0c-3.8,0-6.9-3.1-6.9-6.9c0-3.8,3.1-6.9,6.9-6.9l37.7,0c3.8,0,6.9,3.1,6.9,6.9
		S1345.7,274.2,1341.9,274.2z"/>
	<path class="st1" d="M1698,202.9l-37.7,0c-3.8,0-6.9-3.1-6.9-6.9c0-3.8,3.1-6.9,6.9-6.9l37.7,0c3.8,0,6.9,3.1,6.9,6.9
		S1701.9,202.9,1698,202.9z"/>
	<path class="st1" d="M1408,511.9l-37.7,0c-3.8,0-6.9-3.1-6.9-6.9s3.1-6.9,6.9-6.9l37.7,0c3.8,0,6.9,3.1,6.9,6.9
		C1415,508.8,1411.9,511.9,1408,511.9z"/>
	<path class="st0" d="M1531.1,432.5c-1.8,0-3.5-0.7-4.9-2l-26.7-26.7c-2.7-2.7-2.7-7.1,0-9.8c2.7-2.7,7.1-2.7,9.8,0l26.7,26.7
		c2.7,2.7,2.7,7.1,0,9.8C1534.7,431.8,1532.9,432.5,1531.1,432.5z"/>
	<path class="st0" d="M871.5,107.7c-2.2,3.1-6.6,3.8-9.7,1.5c-8-5.8-19.1-4-24.9,4c-5.8,8-4,19.1,4,24.9c3.1,2.2,3.8,6.6,1.5,9.7
		c-2.2,3.1-6.6,3.8-9.7,1.5c-14.1-10.2-17.3-30.1-7.1-44.2S855.9,87.8,870,98C873.1,100.3,873.8,104.6,871.5,107.7z"/>
	<path class="st0" d="M1117.4,373.1c-3.8,0-6.9-3.1-6.9-6.9c0-25.1,20.4-45.5,45.5-45.5c3.8,0,6.9,3.1,6.9,6.9s-3.1,6.9-6.9,6.9
		c-17.5,0-31.7,14.2-31.7,31.7C1124.4,370,1121.3,373.1,1117.4,373.1z"/>
	<path class="st1" d="M1000.1,77.6c-2.9,0-5.6-1.8-6.5-4.7c-1.2-3.6,0.7-7.6,4.3-8.8c16.5-5.7,25.3-23.7,19.6-40.2
		c-1.2-3.6,0.7-7.6,4.3-8.8c3.6-1.2,7.6,0.7,8.8,4.3c8.2,23.7-4.5,49.7-28.2,57.8C1001.6,77.5,1000.8,77.6,1000.1,77.6z"/>
	<path class="st1" d="M959,266.9l-37.7,0c-3.8,0-6.9-3.1-6.9-6.9s3.1-6.9,6.9-6.9l37.7,0c3.8,0,6.9,3.1,6.9,6.9
		C966,263.8,962.9,266.9,959,266.9z"/>
	<path class="st0" d="M1331.5,41.4c-1.8,0-3.5-0.7-4.9-2L1300,12.7c-2.7-2.7-2.7-7.1,0-9.8c2.7-2.7,7.1-2.7,9.8,0l26.7,26.7
		c2.7,2.7,2.7,7.1,0,9.8C1335.1,40.7,1333.3,41.4,1331.5,41.4z"/>
	<path class="st1" d="M752.1,77.6c-2.9,0-5.6-1.8-6.5-4.7c-1.2-3.6,0.7-7.6,4.3-8.8c16.5-5.7,25.3-23.7,19.6-40.2
		c-1.2-3.6,0.7-7.6,4.3-8.8c3.6-1.2,7.6,0.7,8.8,4.3c8.2,23.7-4.5,49.7-28.2,57.8C753.6,77.5,752.8,77.6,752.1,77.6z"/>
	<path class="st0" d="M1716.3,806.1c0-3.8,3.1-6.9,6.9-6.9c9.8,0,17.8-8,17.8-17.8c0-9.8-8-17.8-17.8-17.8c-3.8,0-6.9-3.1-6.9-6.9
		c0-3.8,3.1-6.9,6.9-6.9c17.5,0,31.7,14.2,31.7,31.7c0,17.5-14.2,31.7-31.7,31.7C1719.4,813,1716.3,809.9,1716.3,806.1z"/>
	<path class="st1" d="M1656.9,459.9c0-3.8,3.1-6.9,6.9-6.9c25.1,0,45.5,20.4,45.5,45.5c0,3.8-3.1,6.9-6.9,6.9s-6.9-3.1-6.9-6.9
		c0-17.5-14.2-31.7-31.7-31.7C1660,466.8,1656.9,463.7,1656.9,459.9z"/>
	<path class="st0" d="M1810.6,647.5c0-1.8,0.7-3.5,2-4.9l26.7-26.7c2.7-2.7,7.1-2.7,9.8,0c2.7,2.7,2.7,7.1,0,9.8l-26.7,26.7
		c-2.7,2.7-7.1,2.7-9.8,0C1811.3,651,1810.6,649.3,1810.6,647.5z"/>
</g>
</svg>
