<svg xmlns="http://www.w3.org/2000/svg" xmlns:xlink="http://www.w3.org/1999/xlink" viewBox="0 0 1024 1024"><defs><style>.cls-1{isolation:isolate;}.cls-2{fill:#e1f4ff;}.cls-3{fill:#accfff;opacity:0.6;}.cls-4{fill:url(#linear-gradient);}.cls-22,.cls-5,.cls-6,.cls-7{opacity:0.5;}.cls-5{fill:url(#linear-gradient-2);}.cls-6{fill:url(#linear-gradient-3);}.cls-7{fill:url(#linear-gradient-4);}.cls-8{fill:#7c69a8;}.cls-9{fill:url(#linear-gradient-5);}.cls-10,.cls-12{fill:#dd5b6b;opacity:0.2;}.cls-10{mix-blend-mode:multiply;}.cls-11{fill:url(#linear-gradient-6);}.cls-13{fill:#5a598e;}.cls-14{fill:#454449;}.cls-15{fill:#9090c4;}.cls-16{fill:#f49144;}.cls-17{fill:url(#linear-gradient-7);}.cls-18{fill:#ffa05f;opacity:0.4;}.cls-19{fill:#bfe8bf;}.cls-20{fill:#5f7e8f;opacity:0.7;}.cls-21{fill:url(#linear-gradient-8);}.cls-22{fill:url(#linear-gradient-9);}.cls-23{fill:#eaebff;}.cls-24{fill:#fa8f77;}.cls-25{fill:#fdfffe;}</style><linearGradient id="linear-gradient" x1="509.01" y1="758.05" x2="509.01" y2="435.42" gradientUnits="userSpaceOnUse"><stop offset="0" stop-color="#f49144"/><stop offset="1" stop-color="#e98632"/></linearGradient><linearGradient id="linear-gradient-2" x1="478.99" y1="838.72" x2="478.99" y2="516.09" gradientTransform="matrix(0.87, 0, 0, 1, 91.22, -0.6)" gradientUnits="userSpaceOnUse"><stop offset="0" stop-color="#f49144"/><stop offset="1" stop-color="#9d4732"/></linearGradient><linearGradient id="linear-gradient-3" x1="349.94" y1="883.86" x2="349.94" y2="561.23" xlink:href="#linear-gradient-2"/><linearGradient id="linear-gradient-4" x1="664.28" y1="883.86" x2="664.28" y2="561.23" xlink:href="#linear-gradient-2"/><linearGradient id="linear-gradient-5" x1="514.47" y1="764" x2="514.47" y2="718.65" gradientTransform="translate(4.92 -3.37) rotate(0.38)" gradientUnits="userSpaceOnUse"><stop offset="0" stop-color="#ffe7c9"/><stop offset="1" stop-color="#ffbe7d"/></linearGradient><linearGradient id="linear-gradient-6" x1="509.7" y1="664.01" x2="509.7" y2="216.08" gradientTransform="matrix(1, 0, 0, 1, 0, 0)" xlink:href="#linear-gradient-5"/><linearGradient id="linear-gradient-7" x1="508.76" y1="770.86" x2="508.76" y2="438.72" xlink:href="#linear-gradient"/><linearGradient id="linear-gradient-8" x1="515.99" y1="958.35" x2="515.99" y2="856" gradientUnits="userSpaceOnUse"><stop offset="0.25" stop-color="#9c9bbf"/><stop offset="1" stop-color="#9c9bbf"/></linearGradient><linearGradient id="linear-gradient-9" x1="477.58" y1="886.76" x2="555.15" y2="886.76" gradientUnits="userSpaceOnUse"><stop offset="0.25" stop-color="#8584a3"/><stop offset="1" stop-color="#8584a3"/></linearGradient></defs><title>Sofi v2</title><g class="cls-1"><g id="Layer_1" data-name="Layer 1"><circle class="cls-2" cx="512" cy="597.35" r="401.11"/><circle class="cls-3" cx="508.76" cy="599.96" r="358.38"/><path class="cls-4" d="M300.13,919.34c-25.47-42.26-44.52-383.85-44.52-383.85L238.85,268.57C238,134.76,358.21,25.49,507.42,24.51S778.28,131.21,779.16,265L765.92,532.14S753.39,883.21,727.1,917.86Z"/><path class="cls-5" d="M279.52,382.59,288,535.28s16.91,341.6,39.18,383.89L700,918c22.92-34.62,33.56-385.69,33.56-385.69l6.36-149.76Z"/><polygon class="cls-6" points="432.67 382.59 361.84 382.59 361.84 919.06 432.67 918.85 432.67 382.59"/><path class="cls-7" d="M642.61,382.59V918.22L700,918c.26-.4.53-.86.79-1.35V382.59Z"/><path class="cls-8" d="M585.47,754.37c.06,9.89-32,19.38-70.83,19.63s-70.33-10.14-70.4-20,31.35-18.11,70.16-18.36S585.4,744.48,585.47,754.37Z"/><rect class="cls-9" x="462.76" y="661.35" width="103.43" height="169.73" transform="translate(-4.89 3.4) rotate(-0.38)"/><path class="cls-10" d="M463.32,831.42l103.42-.68-.46-70.81c-21.82,7.05-51,6.54-51,6.54h-.66s-29.81.19-51.8-7.2Z"/><path class="cls-10" d="M566,719.13,565.63,661l-103.43.68.36,60.1c17.3,5.2,34.1,7.9,49.42,7.68C528.69,729.25,547.1,725.63,566,719.13Z"/><path class="cls-11" d="M270.92,269.8C270.14,151.53,376.42,55,508.29,54.08S747.7,148.39,748.47,266.67l-11.7,236.08c.77,118.28-135.6,214.41-224.11,215.64S286.51,624,285.73,505.72Z"/><path class="cls-12" d="M603.35,503.83c3.94-28.95,89.88-18.21,88.73,11C690.84,546.11,599.72,530.53,603.35,503.83Z"/><ellipse class="cls-13" cx="412.73" cy="434.44" rx="23.76" ry="36.26"/><path class="cls-14" d="M365.25,411.59c-2.84.88,2.5,26.11,14.88,26.11,2.87,0,5.8-2.21,8.88-5.21,6.51-6.35,15.14-16.24,23.72-16.24,20.76,0,23.7,15.54,23.7,15.54-.58-12.52-5.53-27.64-18.37-32.73A13.75,13.75,0,0,0,413,398c-17.4,0-29.16,25.72-33.43,25.72C372.05,423.7,368.21,410.68,365.25,411.59Z"/><ellipse class="cls-13" cx="616.98" cy="434.44" rx="23.76" ry="36.26"/><ellipse class="cls-15" cx="423.71" cy="429.22" rx="6.12" ry="8.57" transform="translate(-148.21 620.69) rotate(-63.88)"/><circle class="cls-15" cx="424.17" cy="445.79" r="3.7"/><ellipse class="cls-15" cx="620.59" cy="428.09" rx="6.12" ry="8.57" transform="translate(-37 796.84) rotate(-63.88)"/><circle class="cls-15" cx="621.05" cy="444.66" r="3.7"/><path class="cls-14" d="M664.47,411.59c2.83.88-2.51,26.11-14.89,26.11-2.87,0-5.8-2.21-8.88-5.21-6.51-6.35-15.14-16.24-23.72-16.24-20.76,0-23.69,15.54-23.69,15.54.57-12.52,5.52-27.64,18.36-32.73a13.75,13.75,0,0,1,5.1-1.08c17.4,0,29.16,25.72,33.43,25.72C657.66,423.7,661.5,410.68,664.47,411.59Z"/><path class="cls-12" d="M538.92,510.62H489.25c0-2.34,22.2-11.43,24.84-11.43S538.92,508.28,538.92,510.62Z"/><path class="cls-12" d="M423.41,502.64c-3.94-28.94-89.88-18.21-88.73,11C335.92,544.92,427,529.34,423.41,502.64Z"/><path class="cls-16" d="M605.66,362.23s46.35-16.64,76.06,14.26C681.72,376.49,624.68,375.3,605.66,362.23Z"/><path class="cls-16" d="M421.1,362.23S374.75,345.59,345,376.49C345,376.49,402.08,375.3,421.1,362.23Z"/><path class="cls-10" d="M507.61,54.08C375.74,55,269.46,151.53,270.24,269.8l6.84,109c39.83-8,135.52-32.08,164.34-82.09v31.17c4.57-4.86,35.36-34.56,52.17-50.72,8.34-8,12.7-9.76,9.71,1-4.79,17.13-11.11,43.29-17.81,53.51,0,0,65.61,10.22,127.17-84.38,17.19-26.42,17.19-26.42,30.08-.77,15.65,31.14,44.06,78.09,71.7,87.3l-2.15-28.48s11.57,30.15,31.32,45.68l4.18-84.32C747,148.39,639.48,53.22,507.61,54.08Z"/><path class="cls-17" d="M757.42,268.45c-1-123-112.95-221.75-250.06-220.65S259.91,149.49,260.9,272.46c0,0-3.22,57.92-1.45,106.16,0,0,148.63-32.91,185.34-96.62l1.66,34.45S503.88,258.08,509.4,258c0,0-3.73,51-14.62,67.67,0,0,69,5,135.52-119.66,0,0,40.82,103.07,78.15,116.56,0,0-3-33.06,3.87-33.12,0,0,17.52,58.18,46.28,66Z"/><path class="cls-18" d="M517.1,62.56c14.47,27.15-40.66,39-99.65,70.41s-99.53,70.65-114,43.51,21.62-74.66,80.62-106.11S502.62,35.42,517.1,62.56Z"/><ellipse class="cls-18" cx="579.33" cy="84.84" rx="30.09" ry="35.45" transform="translate(294.44 596.36) rotate(-69.22)"/><path class="cls-19" d="M632.56,861.1,515.94,843h-.66L398.91,862.63s-45.86,37.14-131.12,52.29c0,0,1.26,2,3.77,5.39a398.93,398.93,0,0,0,193,76.54c17.17,1.16,35.34,1.83,51.73,1.3H517c11.74.23,24.4-.17,36.93-.93a399.15,399.15,0,0,0,208-86C678,896.93,632.56,861.1,632.56,861.1Z"/><path class="cls-20" d="M554.77,946.28l92.56-75.48a152.46,152.46,0,0,1-14.69-9.7L518.85,843.42h-6.06L399,862.63a151,151,0,0,1-14.84,10.06h0l93.05,73.59,2.37-5L493.3,952l-13.75,46.33q15.54,1.22,31.41,1.22a405.59,405.59,0,0,0,42.19-2.2l-13.87-45L552.35,941Z"/><path class="cls-21" d="M516.32,840.26h-1.8L477.2,926.8l22.7,23.72-20.35,47.76q15.54,1.22,31.41,1.22a405.59,405.59,0,0,0,42.19-2.2l-20.76-47,22.38-24Z"/><polygon class="cls-22" points="516.7 840.26 514.9 840.27 477.58 926.8 483.75 933.25 514.23 864.32 517.54 864.3 548.97 932.93 555.15 926.29 516.7 840.26"/><path class="cls-23" d="M517.54,852.94l39.84,84,94.19-69c-38.59-19.63-65.72-113.6-65.72-113.6-15.79,18.67-70.17,17.7-70.17,17.7H515s-54.36.36-70.4-18.1c0,0-25.89,95.64-64.21,115.79l95.37,68L514.23,853Z"/><path class="cls-24" d="M435.06,565.18s35-30.3,102.54-11.66c0,0,35,7,51.27,2.33,0,0-9.32,65.26-69.91,79.24C519,635.09,458.37,646.74,435.06,565.18Z"/><path class="cls-25" d="M451.38,572.17s76.9,11.65,118.85-4.66c0,0-4.66,44.27-55.93,51.27C514.3,618.78,474.68,625.77,451.38,572.17Z"/></g></g></svg>