<svg xmlns="http://www.w3.org/2000/svg" xmlns:xlink="http://www.w3.org/1999/xlink" viewBox="0 0 1024 1024"><defs><style>.cls-1{isolation:isolate;}.cls-2{fill:#e1f4ff;}.cls-3{fill:#accfff;opacity:0.6;}.cls-4{fill:url(#linear-gradient);}.cls-23,.cls-5,.cls-6,.cls-7{opacity:0.5;}.cls-5{fill:url(#linear-gradient-2);}.cls-6{fill:url(#linear-gradient-3);}.cls-7{fill:url(#linear-gradient-4);}.cls-8{fill:#7c69a8;}.cls-9{fill:url(#linear-gradient-5);}.cls-10,.cls-12{fill:#dd5b6b;opacity:0.2;}.cls-10{mix-blend-mode:multiply;}.cls-11{fill:url(#linear-gradient-6);}.cls-13{fill:#772d30;}.cls-14{fill:#454449;}.cls-15{fill:#f47b78;}.cls-16{fill:#fdf9fa;}.cls-17{fill:#fa8f77;}.cls-18{fill:url(#linear-gradient-7);}.cls-19{fill:#ffa05f;opacity:0.4;}.cls-20{fill:#bfe8bf;}.cls-21{fill:#5f7e8f;opacity:0.7;}.cls-22{fill:url(#linear-gradient-8);}.cls-23{fill:url(#linear-gradient-9);}.cls-24{fill:#eaebff;}.cls-25{fill:#f49144;}</style><linearGradient id="linear-gradient" x1="509.03" y1="755.84" x2="509.03" y2="436.11" gradientUnits="userSpaceOnUse"><stop offset="0" stop-color="#f49144"/><stop offset="1" stop-color="#e98632"/></linearGradient><linearGradient id="linear-gradient-2" x1="947.87" y1="832.7" x2="947.87" y2="512.97" gradientTransform="matrix(0.87, 0, 0, 1, -318.09, 2.09)" gradientUnits="userSpaceOnUse"><stop offset="0" stop-color="#f49144"/><stop offset="1" stop-color="#9d4732"/></linearGradient><linearGradient id="linear-gradient-3" x1="819.98" y1="877.44" x2="819.98" y2="557.71" xlink:href="#linear-gradient-2"/><linearGradient id="linear-gradient-4" x1="1131.49" y1="877.44" x2="1131.49" y2="557.71" xlink:href="#linear-gradient-2"/><linearGradient id="linear-gradient-5" x1="514.45" y1="761.73" x2="514.45" y2="716.79" gradientTransform="translate(4.9 -3.37) rotate(0.38)" gradientUnits="userSpaceOnUse"><stop offset="0" stop-color="#ffe7c9"/><stop offset="1" stop-color="#ffbe7d"/></linearGradient><linearGradient id="linear-gradient-6" x1="509.72" y1="662.64" x2="509.72" y2="218.75" gradientTransform="matrix(1, 0, 0, 1, 0, 0)" xlink:href="#linear-gradient-5"/><linearGradient id="linear-gradient-7" x1="508.79" y1="768.53" x2="508.79" y2="439.38" xlink:href="#linear-gradient"/><linearGradient id="linear-gradient-8" x1="515.95" y1="954.33" x2="515.95" y2="852.9" gradientUnits="userSpaceOnUse"><stop offset="0.25" stop-color="#9c9bbf"/><stop offset="1" stop-color="#9c9bbf"/></linearGradient><linearGradient id="linear-gradient-9" x1="477.89" y1="883.38" x2="554.76" y2="883.38" gradientUnits="userSpaceOnUse"><stop offset="0.25" stop-color="#8584a3"/><stop offset="1" stop-color="#8584a3"/></linearGradient></defs><title>Sofi v2</title><g class="cls-1"><g id="Layer_1" data-name="Layer 1"><circle class="cls-2" cx="512" cy="596.58" r="397.5"/><circle class="cls-3" cx="508.79" cy="599.17" r="355.16"/><path class="cls-4" d="M302,915.68c-25.24-41.89-44.12-380.4-44.12-380.4L241.31,270.77C240.44,138.16,359.6,29.87,507.46,28.89s268.43,105.75,269.3,238.36L763.63,532s-12.41,347.91-38.47,382.25Z"/><path class="cls-5" d="M281.61,383.76,290,535.07S306.8,873.6,328.87,915.5l369.38-1.11c22.72-34.32,33.27-382.22,33.27-382.22l6.3-148.41Z"/><polygon class="cls-6" points="433.39 383.76 363.19 383.76 363.19 915.4 433.39 915.19 433.39 383.76"/><path class="cls-7" d="M641.44,383.76v530.8l56.81-.17c.27-.4.53-.86.79-1.34V383.76Z"/><path class="cls-8" d="M584.81,752.19c.06,9.8-31.73,19.2-70.2,19.46s-69.69-10.06-69.76-19.86,31.07-17.94,69.53-18.19S584.74,742.39,584.81,752.19Z"/><rect class="cls-9" x="463.2" y="660.01" width="102.5" height="168.2" transform="translate(-4.88 3.4) rotate(-0.38)"/><path class="cls-10" d="M463.76,828.54l102.49-.67-.46-70.17c-21.62,7-50.51,6.48-50.51,6.48h-.66s-29.55.19-51.33-7.14Z"/><path class="cls-10" d="M565.49,717.26l-.35-57.58-102.49.67.36,59.56c17.14,5.16,33.78,7.83,49,7.62C528.54,727.3,546.78,723.71,565.49,717.26Z"/><path class="cls-11" d="M273.09,272c-.77-117.2,104.55-212.92,235.23-213.77s237.26,93.46,238,210.66l-11.61,234c.77,117.21-134.37,212.47-222.09,213.69S288.54,623,287.77,505.78Z"/><path class="cls-12" d="M602.53,503.9c3.9-28.68,89.07-18,87.93,10.9C689.23,545.81,598.93,530.36,602.53,503.9Z"/><path class="cls-12" d="M538.68,510.64H489.46c0-2.32,22-11.33,24.61-11.33S538.68,508.32,538.68,510.64Z"/><path class="cls-12" d="M424.21,502.73c-3.91-28.69-89.07-18.05-87.93,10.9C337.5,544.63,427.81,529.19,424.21,502.73Z"/><path class="cls-13" d="M454,600.1s10.65-55.18,53.25-55.18c0,0,43.56-4.85,65.83,51.31,0,0-34.85,30-64.86,28.07,0,0-11.62,1.94-29.05-10.65C479.18,613.65,463.69,601.07,454,600.1Z"/><path class="cls-14" d="M448.4,440.67c-6,3.76-11.44,5.86-16.69,6.59-12.83,1.8-24.54-4.49-40.41-14.38-20-12.48-34.39-8.35-40.88,14.56-1,3.43-3.56,13.25,4.5,3.5,13.88-16.79,21.68-1.46,39.65,9,23.66,13.74,46.9,5.19,59.6-15.7C465.26,426,452.05,438.38,448.4,440.67Z"/><path class="cls-14" d="M581.19,440.67c6,3.76,11.44,5.86,16.69,6.59,12.83,1.8,24.54-4.49,40.4-14.38,20-12.48,34.4-8.35,40.88,14.56,1,3.43,3.57,13.25-4.49,3.5-13.88-16.79-21.68-1.46-39.65,9-23.66,13.74-46.9,5.19-59.6-15.7C564.33,426,577.53,438.38,581.19,440.67Z"/><path class="cls-15" d="M471.79,600.12s16.41-22.59,37.63-10.79c0,0,27.12-15.33,40.09,8.25L531.58,612l-40.7-1.57Z"/><path class="cls-16" d="M469.34,575.18s47.16,4.71,73.1-13C542.44,562.21,496.45,536.27,469.34,575.18Z"/><path class="cls-16" d="M458.73,595.22s23.58,3.54,109.65-2.36c2.63-.18-25.94,30.66-57.78,25.94C510.6,618.8,494.1,625.87,458.73,595.22Z"/><path class="cls-17" d="M508.25,536.27c-51.88,0-64.85,67.2-64.85,67.2,11.79,1.18,30.65,16.51,30.65,16.51,21.23,15.33,35.37,13,35.37,13,36.55,2.36,79-34.19,79-34.19C561.3,530.37,508.25,536.27,508.25,536.27Zm2.94,79.58s-24.76,2.36-50.7-22.4c0,0,16.51-31.83,47.17-34.19,0,0,34.19-4.72,58.95,33C566.61,592.27,546.56,615.85,511.19,615.85Z"/><path class="cls-10" d="M507.65,58.21C377,59.06,271.65,154.78,272.42,272l6.78,108c39.47-8,134.3-31.79,162.85-81.35v30.89c4.54-4.82,35-34.25,51.71-50.27,8.26-7.94,12.58-9.66,9.62,1-4.74,17-11,42.89-17.65,53,0,0,65,10.13,126-83.63,17-26.18,17-26.18,29.81-.76,15.51,30.86,43.66,77.38,71.06,86.52l-2.13-28.23s11.47,29.88,31,45.27l4.14-83.57C744.9,151.67,638.34,57.35,507.65,58.21Z"/><path class="cls-18" d="M755.21,270.65C754.23,148.78,643.28,50.88,507.41,52S262.18,152.75,263.16,274.62c0,0-3.19,57.4-1.44,105.2,0,0,147.3-32.61,183.68-95.75L447,318.21s56.92-57.84,62.38-57.89c0,0-3.69,50.59-14.49,67.07,0,0,68.36,4.91,134.31-118.59,0,0,40.44,102.15,77.44,115.51,0,0-3-32.76,3.84-32.82,0,0,17.36,57.65,45.86,65.42Z"/><path class="cls-19" d="M517.05,66.61c14.34,26.9-40.29,38.6-98.75,69.77s-98.63,70-113,43.12,21.42-74,79.89-105.16S502.71,39.71,517.05,66.61Z"/><ellipse class="cls-19" cx="578.72" cy="88.69" rx="29.82" ry="35.13" transform="translate(290.45 598.28) rotate(-69.22)"/><path class="cls-20" d="M631.48,858,515.91,840h-.66L399.92,859.48S354.48,896.28,270,911.29c0,0,1.26,2,3.74,5.34A395.43,395.43,0,0,0,465,992.49c17,1.15,35,1.81,51.27,1.28h.66c11.63.22,24.17-.18,36.6-.92a395.67,395.67,0,0,0,206.16-85.2C676.53,893.47,631.48,858,631.48,858Z"/><path class="cls-21" d="M554.39,942.37l91.73-74.8A147.28,147.28,0,0,1,631.56,858L518.78,840.44h-6L400,859.48a150,150,0,0,1-14.7,10h0l92.22,72.92,2.35-5L493.47,948l-13.63,45.92q15.41,1.19,31.13,1.2a401,401,0,0,0,41.81-2.18L539,948.35l13-11.22Z"/><path class="cls-22" d="M516.28,837.31H514.5l-37,85.75L500,946.57l-20.17,47.34q15.41,1.19,31.13,1.2a401,401,0,0,0,41.81-2.18l-20.57-46.57,22.18-23.8Z"/><polygon class="cls-23" points="516.66 837.31 514.87 837.32 477.89 923.07 484.01 929.46 514.21 861.15 517.49 861.13 548.63 929.14 554.76 922.56 516.66 837.31"/><path class="cls-24" d="M517.49,849.88,557,933.13l93.34-68.36c-38.23-19.46-65.13-112.58-65.13-112.58-15.65,18.5-69.53,17.54-69.53,17.54H515s-53.87.36-69.76-17.94c0,0-25.66,94.79-63.64,114.75l94.52,67.39,38.1-84Z"/><path class="cls-25" d="M607.36,372.5s45.93-16.49,75.37,14.13C682.73,386.63,626.21,385.45,607.36,372.5Z"/><path class="cls-25" d="M424.46,372.5S378.53,356,349.08,386.63C349.08,386.63,405.61,385.45,424.46,372.5Z"/></g></g></svg>