<svg xmlns="http://www.w3.org/2000/svg" xmlns:xlink="http://www.w3.org/1999/xlink" viewBox="0 0 1024 1024"><defs><style>.cls-1{isolation:isolate;}.cls-2{fill:#e1f4ff;}.cls-3{fill:#accfff;opacity:0.6;}.cls-4{fill:url(#linear-gradient);}.cls-24,.cls-5,.cls-6,.cls-7{opacity:0.5;}.cls-5{fill:url(#linear-gradient-2);}.cls-6{fill:url(#linear-gradient-3);}.cls-7{fill:url(#linear-gradient-4);}.cls-8{fill:#7c69a8;}.cls-9{fill:url(#linear-gradient-5);}.cls-10,.cls-12{fill:#dd5b6b;opacity:0.2;}.cls-10{mix-blend-mode:multiply;}.cls-11{fill:url(#linear-gradient-6);}.cls-13{fill:#5a598e;}.cls-14{fill:#454449;}.cls-15{fill:#9090c4;}.cls-16{fill:#f49144;}.cls-17{fill:#ff8e7a;}.cls-18{fill:#fff;}.cls-19{fill:url(#linear-gradient-7);}.cls-20{fill:#ffa05f;opacity:0.4;}.cls-21{fill:#bfe8bf;}.cls-22{fill:#5f7e8f;opacity:0.7;}.cls-23{fill:url(#linear-gradient-8);}.cls-24{fill:url(#linear-gradient-9);}.cls-25{fill:#eaebff;}</style><linearGradient id="linear-gradient" x1="509.02" y1="757.04" x2="509.02" y2="435.74" gradientUnits="userSpaceOnUse"><stop offset="0" stop-color="#f49144"/><stop offset="1" stop-color="#e98632"/></linearGradient><linearGradient id="linear-gradient-2" x1="792.49" y1="835.32" x2="792.49" y2="514.01" gradientTransform="matrix(0.87, 0, 0, 1, -182.46, 1.2)" gradientUnits="userSpaceOnUse"><stop offset="0" stop-color="#f49144"/><stop offset="1" stop-color="#9d4732"/></linearGradient><linearGradient id="linear-gradient-3" x1="663.97" y1="880.28" x2="663.97" y2="558.97" xlink:href="#linear-gradient-2"/><linearGradient id="linear-gradient-4" x1="977.02" y1="880.28" x2="977.02" y2="558.97" xlink:href="#linear-gradient-2"/><linearGradient id="linear-gradient-5" x1="514.46" y1="762.96" x2="514.46" y2="717.8" gradientTransform="translate(4.91 -3.37) rotate(0.38)" gradientUnits="userSpaceOnUse"><stop offset="0" stop-color="#ffe7c9"/><stop offset="1" stop-color="#ffbe7d"/></linearGradient><linearGradient id="linear-gradient-6" x1="509.71" y1="663.39" x2="509.71" y2="217.3" gradientTransform="matrix(1, 0, 0, 1, 0, 0)" xlink:href="#linear-gradient-5"/><linearGradient id="linear-gradient-7" x1="508.77" y1="769.8" x2="508.77" y2="439.02" xlink:href="#linear-gradient"/><linearGradient id="linear-gradient-8" x1="515.97" y1="956.51" x2="515.97" y2="854.59" gradientUnits="userSpaceOnUse"><stop offset="0.25" stop-color="#9c9bbf"/><stop offset="1" stop-color="#9c9bbf"/></linearGradient><linearGradient id="linear-gradient-9" x1="477.72" y1="885.22" x2="554.97" y2="885.22" gradientUnits="userSpaceOnUse"><stop offset="0.25" stop-color="#8584a3"/><stop offset="1" stop-color="#8584a3"/></linearGradient></defs><title>Sofi v2</title><g class="cls-1"><g id="Layer_1" data-name="Layer 1"><circle class="cls-2" cx="512" cy="597" r="399.46"/><circle class="cls-3" cx="508.77" cy="599.6" r="356.91"/><path class="cls-4" d="M301,917.67c-25.37-42.09-44.34-382.27-44.34-382.27L240,269.57C239.1,136.31,358.85,27.48,507.44,26.51S777.19,132.77,778.07,266l-13.2,266S752.4,881.69,726.22,916.2Z"/><path class="cls-5" d="M280.48,383.13l8.46,152s16.84,340.2,39,382.32l371.21-1.12C722,881.89,732.6,532.27,732.6,532.27l6.34-149.14Z"/><polygon class="cls-6" points="433 383.13 362.46 383.13 362.46 917.39 433 917.18 433 383.13"/><path class="cls-7" d="M642.08,383.13V916.55l57.09-.17c.27-.41.54-.87.8-1.35V383.13Z"/><path class="cls-8" d="M585.17,753.38c.06,9.84-31.89,19.29-70.54,19.55s-70-10.11-70.11-19.95,31.22-18,69.87-18.29S585.1,743.53,585.17,753.38Z"/><rect class="cls-9" x="462.96" y="660.74" width="103" height="169.03" transform="translate(-4.89 3.4) rotate(-0.38)"/><path class="cls-10" d="M463.52,830.11l103-.68-.47-70.52c-21.72,7-50.76,6.51-50.76,6.51h-.66s-29.69.19-51.59-7.18Z"/><path class="cls-10" d="M565.75,718.28l-.34-57.88-103,.68.36,59.86c17.22,5.18,34,7.86,49.21,7.65C528.62,728.36,547,724.76,565.75,718.28Z"/><path class="cls-11" d="M271.91,270.8C271.14,153,377,56.83,508.31,56S746.73,149.88,747.5,267.67L735.84,502.79c.78,117.79-135,213.53-223.19,214.75s-225.22-94-226-211.79Z"/><path class="cls-12" d="M603,503.86c3.92-28.82,89.51-18.13,88.36,11C690.11,546,599.36,530.45,603,503.86Z"/><ellipse class="cls-13" cx="413.53" cy="432.12" rx="23.66" ry="36.11"/><path class="cls-14" d="M366.23,409.37c-2.82.86,2.5,26,14.83,26,2.86,0,5.78-2.2,8.84-5.19C396.38,423.85,405,414,413.53,414c20.66,0,23.59,15.46,23.59,15.46-.57-12.46-5.5-27.52-18.29-32.59a13.61,13.61,0,0,0-5.08-1.08c-17.33,0-29,25.62-33.29,25.62C373,421.42,369.18,408.46,366.23,409.37Z"/><ellipse class="cls-13" cx="616.93" cy="432.12" rx="23.66" ry="36.11"/><ellipse class="cls-15" cx="422.72" cy="427.32" rx="6.1" ry="8.54" transform="translate(-147.06 618.74) rotate(-63.88)"/><circle class="cls-15" cx="423.18" cy="443.82" r="3.68"/><ellipse class="cls-15" cx="618.79" cy="426.2" rx="6.1" ry="8.54" transform="translate(-36.3 794.16) rotate(-63.88)"/><circle class="cls-15" cx="619.25" cy="442.7" r="3.68"/><path class="cls-14" d="M664.23,409.37c2.82.86-2.5,26-14.83,26-2.86,0-5.78-2.2-8.84-5.19-6.48-6.32-15.08-16.16-23.63-16.16-20.67,0-23.59,15.46-23.59,15.46.57-12.46,5.5-27.52,18.29-32.59a13.61,13.61,0,0,1,5.08-1.08c17.33,0,29,25.62,33.29,25.62C657.45,421.42,661.27,408.46,664.23,409.37Z"/><path class="cls-12" d="M538.81,510.63H489.35c0-2.33,22.11-11.39,24.73-11.39S538.81,508.3,538.81,510.63Z"/><path class="cls-12" d="M423.77,502.68c-3.92-28.83-89.51-18.13-88.36,10.95C336.64,544.79,427.39,529.27,423.77,502.68Z"/><path class="cls-16" d="M560.47,379.53s39.16-41,85.69-24.52C646.16,355,586.79,383.19,560.47,379.53Z"/><path class="cls-16" d="M455,389s-33.46-45.8-81.75-35.52C373.25,353.45,428.42,389.15,455,389Z"/><path class="cls-17" d="M446.57,581.24c10-31.39,41.29-29.17,68.67-31.52,10.55-.91,23.11-6,33-1.17,13,6.31,15,22,15.26,34.65s3,29.14-8.7,37.73c-13.81,10.11-36.6,4.52-52.52,4.8-14.22.26-30.19,3.41-43.45-3.71C444.5,614.31,442.06,595.45,446.57,581.24Z"/><path class="cls-18" d="M462.81,591.46c-.87-26.27,35-16.27,51.68-20.79,13.4-3.63,30.59-14.67,35.33,6.89,1.58,7.21-.58,22.9-6.42,28.34-7.57,7-20.57,4.81-29.88,4.21C496.21,609,463.71,618.67,462.81,591.46Z"/><path class="cls-10" d="M507.63,56c-131.33.87-237.17,97-236.4,214.84l6.82,108.55c39.66-8,135-32,163.66-81.76v31.05c4.55-4.85,35.21-34.42,52-50.52,8.3-8,12.65-9.71,9.66,1-4.76,17.06-11.06,43.11-17.73,53.29,0,0,65.34,10.18,126.65-84,17.12-26.3,17.12-26.3,30-.76,15.59,31,43.88,77.77,71.41,86.94l-2.14-28.36s11.52,30,31.19,45.5l4.17-84C746.05,149.88,639,55.1,507.63,56Z"/><path class="cls-19" d="M756.41,269.45c-1-122.46-112.48-220.84-249-219.74S260.94,151,261.93,273.44c0,0-3.21,57.69-1.45,105.73,0,0,148-32.77,184.59-96.23l1.65,34.31s57.2-58.13,62.69-58.17c0,0-3.71,50.83-14.56,67.4,0,0,68.69,4.94,135-119.17,0,0,40.64,102.65,77.82,116.08,0,0-3-32.93,3.86-33,0,0,17.44,57.94,46.09,65.74Z"/><path class="cls-20" d="M517.08,64.41c14.41,27-40.49,38.79-99.25,70.12s-99.11,70.36-113.52,43.32,21.53-74.35,80.28-105.67S502.66,37.37,517.08,64.41Z"/><ellipse class="cls-20" cx="579.05" cy="86.59" rx="29.97" ry="35.3" transform="translate(292.62 597.24) rotate(-69.22)"/><path class="cls-21" d="M632.07,859.66l-116.14-18h-.67L399.37,861.19s-45.67,37-130.58,52.07c0,0,1.26,2,3.76,5.37a397.33,397.33,0,0,0,192.21,76.23c17.1,1.16,35.2,1.82,51.52,1.29h.66c11.69.22,24.29-.18,36.78-.93A397.61,397.61,0,0,0,760.9,909.6C677.34,895.35,632.07,859.66,632.07,859.66Z"/><path class="cls-22" d="M554.6,944.49l92.18-75.17a146.56,146.56,0,0,1-14.63-9.66l-113.33-17.6h-6L399.45,861.19a149.08,149.08,0,0,1-14.78,10h0l92.68,73.28,2.36-5,13.67,10.64-13.7,46.14q15.48,1.2,31.29,1.21a404.89,404.89,0,0,0,42-2.19L539.17,950.5l13-11.27Z"/><path class="cls-23" d="M516.3,838.92h-1.79L477.35,925.1,500,948.72l-20.27,47.57q15.48,1.2,31.29,1.21a404.89,404.89,0,0,0,42-2.19l-20.68-46.8,22.3-23.92Z"/><polygon class="cls-24" points="516.68 838.92 514.89 838.93 477.73 925.1 483.87 931.52 514.22 862.88 517.52 862.86 548.82 931.2 554.98 924.59 516.68 838.92"/><path class="cls-25" d="M517.52,851.54l39.67,83.67,93.8-68.7C612.57,847,585.54,753.38,585.54,753.38,569.82,772,515.67,771,515.67,771H515s-54.14.35-70.11-18c0,0-25.79,95.25-63.95,115.31l95,67.72,38.29-84.44Z"/></g></g></svg>