<svg xmlns="http://www.w3.org/2000/svg" xmlns:xlink="http://www.w3.org/1999/xlink" viewBox="0 0 1024 1024"><defs><style>.cls-1{isolation:isolate;}.cls-2{fill:#e1f4ff;}.cls-3{fill:#accfff;opacity:0.6;}.cls-4{fill:url(#linear-gradient);}.cls-23,.cls-5,.cls-6,.cls-7{opacity:0.5;}.cls-5{fill:url(#linear-gradient-2);}.cls-6{fill:url(#linear-gradient-3);}.cls-7{fill:url(#linear-gradient-4);}.cls-8{fill:#7c69a8;}.cls-9{fill:url(#linear-gradient-5);}.cls-10,.cls-12{fill:#dd5b6b;opacity:0.2;}.cls-10{mix-blend-mode:multiply;}.cls-11{fill:url(#linear-gradient-6);}.cls-13{fill:#5a598e;}.cls-14{fill:#9090c4;}.cls-15{fill:#454449;}.cls-16{fill:#f49144;}.cls-17{fill:#fa8f77;}.cls-18{fill:url(#linear-gradient-7);}.cls-19{fill:#ffa05f;opacity:0.4;}.cls-20{fill:#bfe8bf;}.cls-21{fill:#5f7e8f;opacity:0.7;}.cls-22{fill:url(#linear-gradient-8);}.cls-23{fill:url(#linear-gradient-9);}.cls-24{fill:#eaebff;}</style><linearGradient id="linear-gradient" x1="509.04" y1="755.03" x2="509.04" y2="436.37" gradientUnits="userSpaceOnUse"><stop offset="0" stop-color="#f49144"/><stop offset="1" stop-color="#e98632"/></linearGradient><linearGradient id="linear-gradient-2" x1="1257.58" y1="829.58" x2="1257.58" y2="510.92" gradientTransform="matrix(0.87, 0, 0, 1, -588.47, 3.87)" gradientUnits="userSpaceOnUse"><stop offset="0" stop-color="#f49144"/><stop offset="1" stop-color="#9d4732"/></linearGradient><linearGradient id="linear-gradient-3" x1="1130.12" y1="874.17" x2="1130.12" y2="555.51" xlink:href="#linear-gradient-2"/><linearGradient id="linear-gradient-4" x1="1440.59" y1="874.17" x2="1440.59" y2="555.51" xlink:href="#linear-gradient-2"/><linearGradient id="linear-gradient-5" x1="514.44" y1="760.89" x2="514.44" y2="716.1" gradientTransform="translate(4.9 -3.37) rotate(0.38)" gradientUnits="userSpaceOnUse"><stop offset="0" stop-color="#ffe7c9"/><stop offset="1" stop-color="#ffbe7d"/></linearGradient><linearGradient id="linear-gradient-6" x1="509.72" y1="662.14" x2="509.72" y2="219.73" gradientTransform="matrix(1, 0, 0, 1, 0, 0)" xlink:href="#linear-gradient-5"/><linearGradient id="linear-gradient-7" x1="508.8" y1="767.67" x2="508.8" y2="439.62" xlink:href="#linear-gradient"/><linearGradient id="linear-gradient-8" x1="515.94" y1="952.85" x2="515.94" y2="851.77" gradientUnits="userSpaceOnUse"><stop offset="0.25" stop-color="#9c9bbf"/><stop offset="1" stop-color="#9c9bbf"/></linearGradient><linearGradient id="linear-gradient-9" x1="478.01" y1="882.14" x2="554.62" y2="882.14" gradientUnits="userSpaceOnUse"><stop offset="0.25" stop-color="#8584a3"/><stop offset="1" stop-color="#8584a3"/></linearGradient></defs><title>SofiWink</title><g class="cls-1"><g id="Layer_1" data-name="Layer 1"><circle class="cls-2" cx="512" cy="596.3" r="396.17"/><circle class="cls-3" cx="508.8" cy="598.88" r="353.97"/><path class="cls-4" d="M302.74,914.33c-25.16-41.74-44-379.13-44-379.13L242.22,271.57C241.35,139.4,360.11,31.48,507.47,30.51S775,135.9,775.88,268.06L762.79,531.89s-12.37,346.76-38.34,381Z"/><path class="cls-5" d="M282.38,384.19,290.77,535s16.71,337.4,38.71,379.17l368.15-1.11c22.64-34.21,33.16-380.95,33.16-380.95l6.28-147.91Z"/><polygon class="cls-6" points="433.65 384.19 363.69 384.19 363.69 914.05 433.65 913.84 433.65 384.19"/><path class="cls-7" d="M641,384.19v529l56.63-.17c.27-.4.53-.86.79-1.34V384.19Z"/><path class="cls-8" d="M584.56,751.39c.07,9.76-31.62,19.14-70,19.39s-69.46-10-69.52-19.79,31-17.88,69.29-18.13S584.5,741.62,584.56,751.39Z"/><rect class="cls-9" x="463.36" y="659.52" width="102.15" height="167.64" transform="translate(-4.87 3.4) rotate(-0.38)"/><path class="cls-10" d="M463.92,827.49l102.15-.67-.46-69.94c-21.55,7-50.35,6.45-50.35,6.45h-.65s-29.45.19-51.16-7.12Z"/><path class="cls-10" d="M565.31,716.58l-.34-57.4-102.16.67.36,59.36c17.09,5.15,33.68,7.81,48.81,7.6C528.48,726.58,546.67,723,565.31,716.58Z"/><path class="cls-11" d="M273.89,272.78C273.12,156,378.09,60.58,508.34,59.72s236.46,93.15,237.22,210L734,502.87c.77,116.81-133.93,211.76-221.35,213s-223.37-93.24-224.13-210Z"/><path class="cls-12" d="M602.23,503.93c3.89-28.59,88.77-18,87.63,10.86C688.64,545.69,598.64,530.3,602.23,503.93Z"/><ellipse class="cls-13" cx="612.93" cy="433.89" rx="23.46" ry="35.81"/><ellipse class="cls-14" cx="615.92" cy="429.13" rx="6.05" ry="8.47" transform="translate(-40.54 793.22) rotate(-63.88)"/><circle class="cls-14" cx="616.38" cy="445.49" r="3.65"/><path class="cls-15" d="M659.83,411.32c2.8.86-2.48,25.79-14.7,25.79-2.84,0-5.74-2.19-8.77-5.15-6.43-6.27-15-16-23.43-16-20.5,0-23.41,15.34-23.41,15.34.57-12.35,5.46-27.29,18.15-32.32a13.54,13.54,0,0,1,5-1.07c17.19,0,28.8,25.41,33,25.41C653.11,423.28,656.9,410.42,659.83,411.32Z"/><path class="cls-12" d="M538.59,510.64H489.53c0-2.31,21.93-11.29,24.53-11.29S538.59,508.33,538.59,510.64Z"/><path class="cls-12" d="M424.5,502.76c-3.89-28.59-88.77-18-87.63,10.86C338.09,544.52,428.09,529.13,424.5,502.76Z"/><path class="cls-16" d="M587.54,368.63s43.46-21.83,76.27,4.94C663.81,373.57,607.73,379.19,587.54,368.63Z"/><path class="cls-16" d="M428.7,400.75s-32-36.64-72.47-24.28C356.23,376.47,406,402.89,428.7,400.75Z"/><path class="cls-17" d="M432.14,545.29c-2.06,10.46,6.83,20.26,14.55,25.8,17.79,12.77,41.59,17.38,63,20.72,21.82,3.4,52.88,6,69.65-11.7,2.91-3.06,3-5.65-2.05-6.3-5.61-.74-11.57,2.24-16.71,4.11-1.47.53-4.59,2.4-6.17,2.24-.83-.08-.61-.34-1.49-.84-4.11-2.32-7.81-6.7-11.63-9.54-16.71-12.38-36.23-22.28-57.06-24.94-14.37-1.83-27.17-1.2-38.72,9.18C445.5,554,439.24,537.57,432.14,545.29Z"/><path class="cls-17" d="M442,557.89s-12.51,21.84,19.21,43.17,93.89,5.22,97.47-15.73Z"/><path class="cls-10" d="M507.66,59.72C377.42,60.58,272.45,156,273.22,272.78L280,380.44c39.33-7.93,133.85-31.68,162.31-81.08v30.79c4.51-4.81,34.92-34.14,51.53-50.1,8.23-7.91,12.54-9.63,9.58,1-4.72,16.91-11,42.75-17.58,52.85,0,0,64.8,10.1,125.6-83.34,17-26.09,17-26.09,29.71-.76C656.59,280.52,684.64,326.88,712,336l-2.12-28.14s11.42,29.79,30.93,45.13l4.13-83.3C744.12,152.87,637.91,58.86,507.66,59.72Z"/><path class="cls-18" d="M754.4,271.45c-1-121.45-111.56-219-247-217.93S263,154,264,275.41c0,0-3.18,57.21-1.44,104.86,0,0,146.81-32.51,183.07-95.44l1.63,34s56.73-57.65,62.18-57.7c0,0-3.68,50.42-14.44,66.85,0,0,68.13,4.89,133.86-118.19,0,0,40.31,101.8,77.18,115.12,0,0-3-32.66,3.82-32.71,0,0,17.31,57.46,45.72,65.2Z"/><path class="cls-19" d="M517,68.1c14.3,26.81-40.15,38.47-98.42,69.54s-98.3,69.78-112.59,43,21.35-73.74,79.62-104.81S502.74,41.28,517,68.1Z"/><ellipse class="cls-19" cx="578.5" cy="90.1" rx="29.72" ry="35.01" transform="translate(288.99 598.98) rotate(-69.22)"/><path class="cls-20" d="M629.87,857l-115.18-17.9H514l-114.94,19.4s-45.29,36.68-129.5,51.64c0,0,1.25,2,3.72,5.33a394.09,394.09,0,0,0,190.63,75.6c17,1.14,34.91,1.8,51.1,1.28h.65c11.6.22,24.1-.18,36.48-.92a394.35,394.35,0,0,0,205.47-84.92C674.77,892.42,629.87,857,629.87,857Z"/><path class="cls-21" d="M554.25,940.93l91.42-74.55a147.16,147.16,0,0,1-14.51-9.58l-112.4-17.46h-6l-112.4,19a148.76,148.76,0,0,1-14.66,9.93h0l91.91,72.68L480,936l13.56,10.55L480,992.3q15.35,1.19,31,1.2a401,401,0,0,0,41.67-2.17l-13.7-44.44,12.91-11.18Z"/><path class="cls-22" d="M516.27,836.22h-1.78l-36.86,85.46,22.42,23.43L480,992.3q15.35,1.19,31,1.2a401,401,0,0,0,41.67-2.17l-20.5-46.42,22.11-23.72Z"/><polygon class="cls-23" points="516.64 836.22 514.86 836.24 478.01 921.69 484.1 928.06 514.2 859.99 517.47 859.97 548.51 927.75 554.62 921.19 516.64 836.22"/><path class="cls-24" d="M517.47,848.75l39.35,83,93-68.13c-38.11-19.39-64.91-112.2-64.91-112.2-15.6,18.43-69.3,17.48-69.3,17.48H515s-53.69.36-69.53-17.88c0,0-25.57,94.47-63.42,114.36l94.2,67.17,38-83.75Z"/><path class="cls-15" d="M357.57,450.42c13.48-11.85,37.13-21.53,68.83,3.84,2.2,1.76-.21,5.31-2.86,4.38-13.37-4.73-38.82-11.2-63.39-3.64A2.69,2.69,0,0,1,357.57,450.42Z"/></g></g></svg>