<svg xmlns="http://www.w3.org/2000/svg" xmlns:xlink="http://www.w3.org/1999/xlink" viewBox="0 0 1024 1024"><defs><style>.cls-1{isolation:isolate;}.cls-2{fill:#e1f4ff;}.cls-3{fill:#accfff;}.cls-13,.cls-3{opacity:0.6;}.cls-4{fill:url(#linear-gradient);}.cls-24,.cls-5,.cls-6,.cls-7{opacity:0.5;}.cls-5{fill:url(#linear-gradient-2);}.cls-6{fill:url(#linear-gradient-3);}.cls-7{fill:url(#linear-gradient-4);}.cls-8{fill:#7c69a8;}.cls-9{fill:url(#linear-gradient-5);}.cls-10,.cls-12{fill:#dd5b6b;opacity:0.2;}.cls-10{mix-blend-mode:multiply;}.cls-11{fill:url(#linear-gradient-6);}.cls-13{fill:#fff;}.cls-14{fill:#772d30;}.cls-15{fill:#fefafb;}.cls-16{fill:#f57a78;}.cls-17{fill:#fa8f77;}.cls-18{fill:#454449;}.cls-19{fill:url(#linear-gradient-7);}.cls-20{fill:#ffa05f;opacity:0.4;}.cls-21{fill:#bfe8bf;}.cls-22{fill:#5f7e8f;opacity:0.7;}.cls-23{fill:url(#linear-gradient-8);}.cls-24{fill:url(#linear-gradient-9);}.cls-25{fill:#eaebff;}.cls-26{fill:#f49144;}</style><linearGradient id="linear-gradient" x1="509.04" y1="755.03" x2="509.04" y2="436.37" gradientUnits="userSpaceOnUse"><stop offset="0" stop-color="#f49144"/><stop offset="1" stop-color="#e98632"/></linearGradient><linearGradient id="linear-gradient-2" x1="1102.07" y1="830.61" x2="1102.07" y2="511.95" gradientTransform="matrix(0.87, 0, 0, 1, -452.71, 2.98)" gradientUnits="userSpaceOnUse"><stop offset="0" stop-color="#f49144"/><stop offset="1" stop-color="#9d4732"/></linearGradient><linearGradient id="linear-gradient-3" x1="974.61" y1="875.19" x2="974.61" y2="556.53" xlink:href="#linear-gradient-2"/><linearGradient id="linear-gradient-4" x1="1285.08" y1="875.19" x2="1285.08" y2="556.53" xlink:href="#linear-gradient-2"/><linearGradient id="linear-gradient-5" x1="514.44" y1="760.89" x2="514.44" y2="716.1" gradientTransform="translate(4.9 -3.37) rotate(0.38)" gradientUnits="userSpaceOnUse"><stop offset="0" stop-color="#ffe7c9"/><stop offset="1" stop-color="#ffbe7d"/></linearGradient><linearGradient id="linear-gradient-6" x1="509.72" y1="662.14" x2="509.72" y2="219.73" gradientTransform="matrix(1, 0, 0, 1, 0, 0)" xlink:href="#linear-gradient-5"/><linearGradient id="linear-gradient-7" x1="508.8" y1="767.67" x2="508.8" y2="439.62" xlink:href="#linear-gradient"/><linearGradient id="linear-gradient-8" x1="515.94" y1="952.85" x2="515.94" y2="851.77" gradientUnits="userSpaceOnUse"><stop offset="0.25" stop-color="#9c9bbf"/><stop offset="1" stop-color="#9c9bbf"/></linearGradient><linearGradient id="linear-gradient-9" x1="478.01" y1="882.14" x2="554.62" y2="882.14" gradientUnits="userSpaceOnUse"><stop offset="0.25" stop-color="#8584a3"/><stop offset="1" stop-color="#8584a3"/></linearGradient></defs><title>Sofi v2</title><g class="cls-1"><g id="Layer_1" data-name="Layer 1"><circle class="cls-2" cx="512" cy="596.3" r="396.17"/><circle class="cls-3" cx="508.8" cy="598.88" r="353.97"/><path class="cls-4" d="M302.74,914.33c-25.16-41.74-44-379.13-44-379.13L242.22,271.57C241.35,139.4,360.11,31.48,507.47,30.51S775,135.9,775.88,268.06L762.79,531.89s-12.37,346.76-38.34,381Z"/><path class="cls-5" d="M282.38,384.19,290.77,535s16.71,337.4,38.71,379.17l368.15-1.11c22.64-34.21,33.16-380.95,33.16-380.95l6.28-147.91Z"/><polygon class="cls-6" points="433.65 384.19 363.69 384.19 363.69 914.05 433.65 913.84 433.65 384.19"/><path class="cls-7" d="M641,384.19v529l56.63-.17c.27-.4.53-.86.79-1.34V384.19Z"/><path class="cls-8" d="M584.56,751.39c.07,9.76-31.62,19.14-70,19.39s-69.46-10-69.52-19.79,31-17.88,69.29-18.13S584.5,741.62,584.56,751.39Z"/><rect class="cls-9" x="463.36" y="659.52" width="102.15" height="167.64" transform="translate(-4.87 3.4) rotate(-0.38)"/><path class="cls-10" d="M463.92,827.49l102.15-.67-.46-69.94c-21.55,7-50.35,6.45-50.35,6.45h-.65s-29.45.19-51.16-7.12Z"/><path class="cls-10" d="M565.31,716.58l-.34-57.4-102.16.67.36,59.36c17.09,5.15,33.68,7.81,48.81,7.6C528.48,726.58,546.67,723,565.31,716.58Z"/><path class="cls-11" d="M273.89,272.78C273.12,156,378.09,60.58,508.34,59.72s236.46,93.15,237.22,210L734,502.87c.77,116.81-133.93,211.76-221.35,213s-223.37-93.24-224.13-210Z"/><path class="cls-12" d="M602.23,503.93c3.89-28.59,88.77-18,87.63,10.86C688.64,545.69,598.64,530.3,602.23,503.93Z"/><path class="cls-12" d="M424.5,502.76c-3.89-28.59-88.77-18-87.63,10.86C338.09,544.52,428.09,529.13,424.5,502.76Z"/><path class="cls-13" d="M687.26,621.38c-6.76-9.49-12.82-18.48-16.51-29.81-3.88-11.92-4-23.75-1.26-36.12,2.14-9.63,6.77-17.9,5.28-28.35-2.15-15.09-15-25.16-19.3-39.81-4.84-16.42,3.21-31.31,6.15-46.37l-60.77,12.55c6.19,13-.07,27.19-5.76,40.31-5.91,13.62-3.14,25.13,4.52,37.5,10.18,16.43,19.73,26.76,13.17,47.3-5,15.58-16.57,28.53-22.27,44.53-6.24,17.52-5.8,33.91-5.82,52.64,0,7.47,1.73,14.21,3.71,20.86C624.34,680.13,660.15,653.93,687.26,621.38Z"/><path class="cls-13" d="M334.44,621.38c6.76-9.49,12.82-18.48,16.51-29.81,3.87-11.92,4-23.75,1.26-36.12-2.14-9.63-6.77-17.9-5.28-28.35,2.15-15.09,15-25.16,19.29-39.81,4.85-16.42-3.2-31.31-6.14-46.37l70.81,14.39c-11.64,13.47-10,25.35-4.28,38.47,5.91,13.62,3.13,25.13-4.53,37.5-10.17,16.43-19.72,26.76-13.16,47.3,5,15.58,16.56,28.53,22.27,44.53,6.24,17.52,5.8,33.91,5.82,52.64,0,7.47-1.73,14.21-3.71,20.86C397.36,680.13,361.55,653.93,334.44,621.38Z"/><path class="cls-12" d="M538.59,510.64H489.53c0-2.31,21.93-11.29,24.53-11.29S538.59,508.33,538.59,510.64Z"/><path class="cls-14" d="M457.9,583.47a49.77,49.77,0,0,1,14.17-25.08,50.57,50.57,0,0,1,22.9-12c9.49-2.47,17-1.8,25.07-1.09,7.6.68,13.07,1.21,19.62,4.36a46.3,46.3,0,0,1,14.18,10.9A47.25,47.25,0,0,1,563.65,578c2,6.8,2.84,8.29,3.27,24,.34,12.72,1.35,15.46,1.09,27.25-.3,13.79-4,16.67-5.45,18.54-1.81,2.32-4.63,5.59-18.53,8.72-10.8,2.43-18.7,4.21-30.53,4.36-13.34.17-20-.84-28.34-4.36-3.76-1.59-16.06-7-22.9-20.71-2.38-4.78-3-10.13-4.36-20.72a121,121,0,0,1-1.09-18.53A68.44,68.44,0,0,1,457.9,583.47Z"/><path class="cls-15" d="M470,569.3s33.49,7.17,87.32,0C557.29,569.3,516.62,520.26,470,569.3Z"/><path class="cls-16" d="M465.19,621.93s23.92-15.55,46.64-1.2c0,0,23.93-16.75,50.24,3.59l-3.59,19.14-89.71-2.4Z"/><path class="cls-15" d="M469.37,627.31s29.91,6,89.71,0c0,0,0,33.49-45.45,28.7C513.63,656,474.16,662,469.37,627.31Z"/><path class="cls-17" d="M543.36,543.81c-32.95-17.28-83.25-2.68-91.33,36.25-6.76,32.6,1.82,73.27,37.51,82.81,24.28,6.5,78.18,5.39,82.94-26.79C576.92,606.1,573.72,559.73,543.36,543.81Zm4.55,97.06c-8.12,8.25-21.95,8.33-32.8,8.17-12.46-.18-25.45.6-34.11-9.61-8.24-9.72-12.28-25.92-11.63-38.44,1.53-29,26.12-46.66,54-43.9,25.79,2.55,30.29,24.13,30.84,46.79C554.53,615.8,557.15,631.49,547.91,640.87Z"/><path class="cls-18" d="M448.61,440.91c-6,3.75-11.4,5.84-16.64,6.57-12.78,1.79-24.45-4.48-40.26-14.34-20-12.43-34.28-8.32-40.75,14.52-1,3.41-3.55,13.2,4.48,3.48,13.83-16.73,21.61-1.45,39.52,8.95,23.59,13.69,46.75,5.17,59.4-15.65C465.41,426.25,452.25,438.63,448.61,440.91Z"/><path class="cls-18" d="M581,440.91c6,3.75,11.4,5.84,16.63,6.57,12.79,1.79,24.46-4.48,40.27-14.34,20-12.43,34.28-8.32,40.75,14.52,1,3.41,3.55,13.2-4.48,3.48-13.83-16.73-21.61-1.45-39.52,8.95-23.59,13.69-46.75,5.17-59.4-15.65C564.16,426.25,577.31,438.63,581,440.91Z"/><path class="cls-10" d="M507.66,59.72C377.42,60.58,272.45,156,273.22,272.78L280,380.44c39.33-7.93,133.85-31.68,162.31-81.08v30.79c4.51-4.81,34.92-34.14,51.53-50.1,8.23-7.91,12.54-9.63,9.58,1-4.72,16.91-11,42.75-17.58,52.85,0,0,64.8,10.1,125.6-83.34,17-26.09,17-26.09,29.71-.76C656.59,280.52,684.64,326.88,712,336l-2.12-28.14s11.42,29.79,30.93,45.13l4.13-83.3C744.12,152.87,637.91,58.86,507.66,59.72Z"/><path class="cls-19" d="M754.4,271.45c-1-121.45-111.56-219-247-217.93S263,154,264,275.41c0,0-3.18,57.21-1.44,104.86,0,0,146.81-32.51,183.07-95.44l1.63,34s56.73-57.65,62.18-57.7c0,0-3.68,50.42-14.44,66.85,0,0,68.13,4.89,133.86-118.19,0,0,40.31,101.8,77.18,115.12,0,0-3-32.66,3.82-32.71,0,0,17.31,57.46,45.72,65.2Z"/><path class="cls-20" d="M517,68.1c14.3,26.81-40.15,38.47-98.42,69.54s-98.3,69.78-112.59,43,21.35-73.74,79.62-104.81S502.74,41.28,517,68.1Z"/><ellipse class="cls-20" cx="578.5" cy="90.1" rx="29.72" ry="35.01" transform="translate(288.99 598.98) rotate(-69.22)"/><path class="cls-21" d="M631.08,856.8,515.89,838.91h-.65L400.3,858.32S355,895,270.79,910c0,0,1.25,2,3.73,5.32a394.06,394.06,0,0,0,190.63,75.61c17,1.14,34.91,1.8,51.1,1.28h.65c11.6.22,24.09-.17,36.48-.92a394.34,394.34,0,0,0,205.47-84.91C676,892.19,631.08,856.8,631.08,856.8Z"/><path class="cls-22" d="M554.25,940.93l91.42-74.55a147.16,147.16,0,0,1-14.51-9.58l-112.4-17.46h-6l-112.4,19a148.76,148.76,0,0,1-14.66,9.93h0l91.91,72.68L480,936l13.56,10.55L480,992.3q15.35,1.19,31,1.2a401,401,0,0,0,41.67-2.17l-13.7-44.44,12.91-11.18Z"/><path class="cls-23" d="M516.27,836.22h-1.78l-36.86,85.46,22.42,23.43L480,992.3q15.35,1.19,31,1.2a401,401,0,0,0,41.67-2.17l-20.5-46.42,22.11-23.72Z"/><polygon class="cls-24" points="516.64 836.22 514.86 836.24 478.01 921.69 484.1 928.06 514.2 859.99 517.47 859.97 548.51 927.75 554.62 921.19 516.64 836.22"/><path class="cls-25" d="M517.47,848.75l39.35,83,93-68.13c-38.11-19.39-64.91-112.2-64.91-112.2-15.6,18.43-69.3,17.48-69.3,17.48H515s-53.69.36-69.53-17.88c0,0-25.57,94.47-63.42,114.36l94.2,67.17,38-83.75Z"/><path class="cls-26" d="M607,373s45.78-16.43,75.12,14.09C682.16,387.05,625.82,385.87,607,373Z"/><path class="cls-26" d="M424.75,373S379,356.53,349.63,387.05C349.63,387.05,406,385.87,424.75,373Z"/></g></g></svg>