<svg xmlns="http://www.w3.org/2000/svg" xmlns:xlink="http://www.w3.org/1999/xlink" viewBox="0 0 1024 1024"><defs><style>.cls-1{isolation:isolate;}.cls-2{fill:#e1f4ff;}.cls-3{fill:#accfff;opacity:0.6;}.cls-4{fill:url(#linear-gradient);}.cls-23,.cls-5,.cls-6,.cls-7{opacity:0.5;}.cls-5{fill:url(#linear-gradient-2);}.cls-6{fill:url(#linear-gradient-3);}.cls-7{fill:url(#linear-gradient-4);}.cls-8{fill:#7c69a8;}.cls-9{fill:url(#linear-gradient-5);}.cls-10,.cls-12{fill:#dd5b6b;opacity:0.2;}.cls-10{mix-blend-mode:multiply;}.cls-11{fill:url(#linear-gradient-6);}.cls-13{fill:#5a598e;}.cls-14{fill:#454449;}.cls-15{fill:#9090c4;}.cls-16{fill:#f49144;}.cls-17{fill:#fa8f77;}.cls-18{fill:url(#linear-gradient-7);}.cls-19{fill:#ffa05f;opacity:0.4;}.cls-20{fill:#bfe8bf;}.cls-21{fill:#5f7e8f;opacity:0.7;}.cls-22{fill:url(#linear-gradient-8);}.cls-23{fill:url(#linear-gradient-9);}.cls-24{fill:#eaebff;}</style><linearGradient id="linear-gradient" x1="509.01" y1="757.55" x2="509.01" y2="435.58" gradientUnits="userSpaceOnUse"><stop offset="0" stop-color="#f49144"/><stop offset="1" stop-color="#e98632"/></linearGradient><linearGradient id="linear-gradient-2" x1="636.25" y1="837.02" x2="636.25" y2="515.05" gradientTransform="matrix(0.87, 0, 0, 1, -46.06, 0.3)" gradientUnits="userSpaceOnUse"><stop offset="0" stop-color="#f49144"/><stop offset="1" stop-color="#9d4732"/></linearGradient><linearGradient id="linear-gradient-3" x1="507.46" y1="882.07" x2="507.46" y2="560.1" xlink:href="#linear-gradient-2"/><linearGradient id="linear-gradient-4" x1="821.16" y1="882.07" x2="821.16" y2="560.1" xlink:href="#linear-gradient-2"/><linearGradient id="linear-gradient-5" x1="514.47" y1="763.48" x2="514.47" y2="718.22" gradientTransform="translate(4.91 -3.37) rotate(0.38)" gradientUnits="userSpaceOnUse"><stop offset="0" stop-color="#ffe7c9"/><stop offset="1" stop-color="#ffbe7d"/></linearGradient><linearGradient id="linear-gradient-6" x1="509.7" y1="663.7" x2="509.7" y2="216.69" gradientTransform="matrix(1, 0, 0, 1, 0, 0)" xlink:href="#linear-gradient-5"/><linearGradient id="linear-gradient-7" x1="508.77" y1="770.33" x2="508.77" y2="438.87" xlink:href="#linear-gradient"/><linearGradient id="linear-gradient-8" x1="515.98" y1="957.43" x2="515.98" y2="855.29" gradientUnits="userSpaceOnUse"><stop offset="0.25" stop-color="#9c9bbf"/><stop offset="1" stop-color="#9c9bbf"/></linearGradient><linearGradient id="linear-gradient-9" x1="477.65" y1="885.99" x2="555.06" y2="885.99" gradientUnits="userSpaceOnUse"><stop offset="0.25" stop-color="#8584a3"/><stop offset="1" stop-color="#8584a3"/></linearGradient></defs><title>Sofi v2</title><g class="cls-1"><g id="Layer_1" data-name="Layer 1"><circle class="cls-2" cx="512" cy="597.18" r="400.29"/><circle class="cls-3" cx="508.77" cy="599.78" r="357.65"/><path class="cls-4" d="M300.57,918.51c-25.42-42.18-44.43-383.07-44.43-383.07L239.41,269.07c-.87-133.54,119.12-242.58,268-243.56S777.74,132,778.62,265.53L765.4,532.1S752.9,882.45,726.66,917Z"/><path class="cls-5" d="M280,382.86l8.48,152.37s16.88,340.9,39.1,383.1l372-1.12c22.88-34.56,33.5-384.9,33.5-384.9l6.34-149.45Z"/><polygon class="cls-6" points="432.84 382.86 362.15 382.86 362.15 918.23 432.84 918.01 432.84 382.86"/><path class="cls-7" d="M642.34,382.86V917.38l57.22-.17c.27-.4.53-.86.8-1.35v-533Z"/><path class="cls-8" d="M585.32,753.87c.06,9.87-32,19.34-70.69,19.6s-70.18-10.13-70.25-20,31.28-18.07,70-18.33S585.25,744,585.32,753.87Z"/><rect class="cls-9" x="462.86" y="661.05" width="103.21" height="169.38" transform="matrix(1, -0.01, 0.01, 1, -4.89, 3.4)"/><path class="cls-10" d="M463.42,830.76l103.21-.68-.46-70.66c-21.77,7-50.87,6.52-50.87,6.52h-.66s-29.76.19-51.7-7.19Z"/><path class="cls-10" d="M565.86,718.7l-.34-58-103.22.68.36,60c17.27,5.19,34,7.88,49.32,7.67C528.65,728.81,547,725.2,565.86,718.7Z"/><path class="cls-11" d="M271.42,270.3C270.64,152.27,376.7,55.89,508.3,55S747.21,149.14,748,267.17l-11.68,235.6c.77,118-135.32,214-223.65,215.19S287,623.76,286.2,505.73Z"/><path class="cls-12" d="M603.17,503.85c3.93-28.89,89.69-18.17,88.54,11C690.48,546,599.54,530.49,603.17,503.85Z"/><ellipse class="cls-13" cx="410.15" cy="433.08" rx="23.71" ry="36.18"/><path class="cls-14" d="M362.76,410.28c-2.83.87,2.5,26.05,14.85,26.05,2.87,0,5.79-2.21,8.87-5.2,6.49-6.34,15.1-16.2,23.67-16.2,20.71,0,23.64,15.5,23.64,15.5-.57-12.49-5.51-27.58-18.33-32.67a13.79,13.79,0,0,0-5.08-1.07c-17.37,0-29.1,25.67-33.37,25.67C369.55,422.36,365.72,409.37,362.76,410.28Z"/><ellipse class="cls-13" cx="613.97" cy="433.08" rx="23.71" ry="36.18"/><ellipse class="cls-15" cx="420.52" cy="429.39" rx="6.11" ry="8.56" transform="translate(-150.15 617.93) rotate(-63.88)"/><circle class="cls-15" cx="420.98" cy="445.92" r="3.69"/><ellipse class="cls-15" cx="617" cy="428.27" rx="6.11" ry="8.56" transform="translate(-39.16 793.71) rotate(-63.88)"/><circle class="cls-15" cx="617.46" cy="444.8" r="3.69"/><path class="cls-14" d="M661.36,410.28c2.83.87-2.5,26.05-14.85,26.05-2.87,0-5.79-2.21-8.86-5.2-6.5-6.34-15.11-16.2-23.68-16.2-20.71,0-23.64,15.5-23.64,15.5.57-12.49,5.52-27.58,18.33-32.67a13.84,13.84,0,0,1,5.09-1.07c17.37,0,29.09,25.67,33.36,25.67C654.57,422.36,658.41,409.37,661.36,410.28Z"/><path class="cls-12" d="M538.87,510.63H489.3c0-2.34,22.15-11.41,24.78-11.41S538.87,508.29,538.87,510.63Z"/><path class="cls-12" d="M423.59,502.66c-3.93-28.89-89.69-18.17-88.54,11C336.28,544.86,427.22,529.31,423.59,502.66Z"/><path class="cls-16" d="M605.47,362.54s46.25-16.61,75.9,14.23C681.37,376.77,624.45,375.58,605.47,362.54Z"/><path class="cls-16" d="M421.28,362.54s-46.25-16.61-75.9,14.23C345.38,376.77,402.31,375.58,421.28,362.54Z"/><path class="cls-17" d="M435.22,565.33c.93,10.73,12.3,17.77,21.34,21,20.84,7.43,45.23,5.27,66.95,2.53,22.13-2.79,53-9,64.37-30.81,2-3.78,1.29-6.31-3.76-5.54-5.65.85-10.61,5.41-15.07,8.66-1.28.93-3.79,3.6-5.37,3.9-.83.15-.69-.17-1.68-.4-4.64-1.11-9.45-4.33-14-6-19.68-7.36-41.4-11.53-62.36-8.29-14.47,2.23-26.72,6.42-35,19.73C450.64,570.08,440,555.85,435.22,565.33Z"/><path class="cls-17" d="M448.27,574.82s-3.56,41.51,33.2,53.37,72.35-22.54,72.35-22.54,17.79-15.41,15.41-36.76Z"/><path class="cls-10" d="M507.62,55C376,55.89,270,152.27,270.74,270.3l6.83,108.77c39.74-8,135.24-32,164-81.92v31.11c4.57-4.85,35.29-34.49,52.07-50.62,8.32-8,12.67-9.73,9.68,1-4.77,17.09-11.08,43.2-17.77,53.4,0,0,65.48,10.2,126.91-84.21,17.16-26.36,17.16-26.36,30-.77,15.62,31.08,44,77.93,71.56,87.13l-2.15-28.43s11.55,30.1,31.26,45.6l4.17-84.16C746.54,149.14,639.22,54.16,507.62,55Z"/><path class="cls-18" d="M756.92,269c-1-122.71-112.72-221.3-249.55-220.2S260.43,150.24,261.42,273c0,0-3.22,57.81-1.46,106,0,0,148.33-32.84,185-96.43l1.65,34.38s57.32-58.25,62.82-58.29c0,0-3.71,50.94-14.59,67.54,0,0,68.84,4.94,135.25-119.42,0,0,40.73,102.86,78,116.32,0,0-3-33,3.86-33.05,0,0,17.48,58.05,46.19,65.87Z"/><path class="cls-19" d="M517.09,63.49c14.44,27.09-40.57,38.87-99.45,70.26s-99.32,70.51-113.76,43.41,21.57-74.5,80.45-105.89S502.64,36.39,517.09,63.49Z"/><ellipse class="cls-19" cx="579.19" cy="85.72" rx="30.03" ry="35.38" transform="translate(293.53 596.8) rotate(-69.22)"/><path class="cls-20" d="M632.31,860.38,515.93,842.3h-.66l-116.13,19.6S353.38,899,268.29,914.09c0,0,1.26,2,3.76,5.38a398.15,398.15,0,0,0,192.62,76.39c17.13,1.15,35.27,1.82,51.62,1.29H517c11.72.22,24.35-.18,36.86-.93a398.37,398.37,0,0,0,207.6-85.8C677.68,896.14,632.31,860.38,632.31,860.38Z"/><path class="cls-21" d="M554.68,945.38l92.38-75.32a149.83,149.83,0,0,1-14.67-9.68L518.83,842.74h-6.05L399.22,861.91a151.16,151.16,0,0,1-14.81,10h0l92.87,73.43,2.36-5,13.7,10.66-13.73,46.24q15.52,1.2,31.35,1.21a406.82,406.82,0,0,0,42.11-2.19l-13.85-44.9,13-11.3Z"/><path class="cls-22" d="M516.31,839.59h-1.79L477.28,926l22.65,23.67-20.32,47.67q15.52,1.2,31.35,1.21a406.82,406.82,0,0,0,42.11-2.19l-20.72-46.9,22.33-24Z"/><polygon class="cls-23" points="516.69 839.59 514.89 839.6 477.65 925.95 483.81 932.38 514.22 863.6 517.53 863.58 548.89 932.06 555.06 925.44 516.69 839.59"/><path class="cls-24" d="M517.53,852.24l39.75,83.84,94-68.84c-38.5-19.59-65.59-113.37-65.59-113.37-15.75,18.63-70,17.67-70,17.67H515s-54.25.36-70.25-18.06c0,0-25.84,95.44-64.08,115.54l95.18,67.87,38.36-84.62Z"/></g></g></svg>