<svg xmlns="http://www.w3.org/2000/svg" viewBox="0 0 39.09 32.51"><defs><style>.cls-1{fill:#a4c33e;}</style></defs><title>Asset 9</title><g id="Layer_2" data-name="Layer 2"><g id="Layer_1-2" data-name="Layer 1"><path class="cls-1" d="M38.47,3.78a15,15,0,0,1-2.7.91A8.39,8.39,0,0,0,38,1.16h0a.44.44,0,0,0-.64-.51h0a15.93,15.93,0,0,1-4.12,1.7l-.26,0a1.07,1.07,0,0,1-.72-.28A8.46,8.46,0,0,0,26.67,0,9.11,9.11,0,0,0,24,.41a8.17,8.17,0,0,0-5.5,5.88,8.88,8.88,0,0,0-.2,3.11.27.27,0,0,1-.08.23.3.3,0,0,1-.23.11h0A22.11,22.11,0,0,1,2.77,1.62h0a.44.44,0,0,0-.72.06h0A8.44,8.44,0,0,0,3.42,11.92a7.34,7.34,0,0,1-1.92-.74h0a.45.45,0,0,0-.66.38h0a8.44,8.44,0,0,0,4.93,7.77H5.59a7.51,7.51,0,0,1-1.42-.14h0a.45.45,0,0,0-.51.57h0a8.46,8.46,0,0,0,6.68,5.74,15.59,15.59,0,0,1-8.71,2.65h-1a.64.64,0,0,0-.63.48.67.67,0,0,0,.32.74A23.11,23.11,0,0,0,12,32.51a23.43,23.43,0,0,0,9.94-2.1A21.94,21.94,0,0,0,29.16,25a23.81,23.81,0,0,0,4.45-7.45,23.5,23.5,0,0,0,1.51-8.16V9.22a1.42,1.42,0,0,1,.54-1.11A16.52,16.52,0,0,0,39,4.43h0a.44.44,0,0,0-.54-.65Z"/></g></g></svg>